solid OpenSCAD_Model
  facet normal 0 -0 -1
    outer loop
      vertex 6.72948 0 0
      vertex 12.578 -8.04985 0
      vertex 6.11145 -0.850647 0
    endloop
  endfacet
  facet normal 0 0 -1
    outer loop
      vertex 1.69756 5.22455 0
      vertex -4.44426 3.22896 0
      vertex -4.44426 4.28041 0
    endloop
  endfacet
  facet normal 0 -0 -1
    outer loop
      vertex 12.578 -8.04985 0
      vertex 12.9443 -9.40456 0
      vertex 11.6352 -8.45351 0
    endloop
  endfacet
  facet normal -0 0 -1
    outer loop
      vertex 12.9443 9.40456 0
      vertex 11.6352 8.45351 0
      vertex 11.5427 9.47488 0
    endloop
  endfacet
  facet normal 0 0 -1
    outer loop
      vertex 6.72948 0 0
      vertex 6.11145 0.850647 0
      vertex 12.578 8.04985 0
    endloop
  endfacet
  facet normal -0 0 -1
    outer loop
      vertex 14.6167 6.50778 0
      vertex 13.7032 6.10104 0
      vertex 12.578 8.04985 0
    endloop
  endfacet
  facet normal 0 0 -1
    outer loop
      vertex 16 0 0
      vertex 14.6722 3.11867 0
      vertex 15.6504 3.32658 0
    endloop
  endfacet
  facet normal 0 0 -1
    outer loop
      vertex 4.63525 14.2658 0
      vertex 8 13.8564 0
      vertex 7.5 12.9904 0
    endloop
  endfacet
  facet normal 0 -0 -1
    outer loop
      vertex 1.67245 15.9123 0
      vertex 4.63525 14.2658 0
      vertex 1.56792 14.9178 0
    endloop
  endfacet
  facet normal 0 0 -1
    outer loop
      vertex 1.67245 15.9123 0
      vertex 4.94426 15.2169 0
      vertex 4.63525 14.2658 0
    endloop
  endfacet
  facet normal 0 -0 -1
    outer loop
      vertex -1.67245 15.9123 0
      vertex -1.56792 14.9178 0
      vertex -3.76901 14.45 0
    endloop
  endfacet
  facet normal 0 -0 -1
    outer loop
      vertex -10.7061 11.8903 0
      vertex -10.037 11.1472 0
      vertex -12.9443 9.40456 0
    endloop
  endfacet
  facet normal 0 0 -1
    outer loop
      vertex -10.037 11.1472 0
      vertex -7.99998 13.8564 0
      vertex -7.49998 12.9904 0
    endloop
  endfacet
  facet normal 0 -0 -1
    outer loop
      vertex -14.6167 6.50778 0
      vertex -13.7032 6.10104 0
      vertex -15.6504 3.32658 0
    endloop
  endfacet
  facet normal 0 0 -1
    outer loop
      vertex -14.6167 6.50778 0
      vertex -12.9443 9.40456 0
      vertex -12.1353 8.81677 0
    endloop
  endfacet
  facet normal 0 0 -1
    outer loop
      vertex -15.6504 3.32658 0
      vertex -14.6722 3.11867 0
      vertex -14.9074 0.880722 0
    endloop
  endfacet
  facet normal 0 0 -1
    outer loop
      vertex -5.44426 -13.9056 0
      vertex -8 -13.8564 0
      vertex -7.5 -12.9904 0
    endloop
  endfacet
  facet normal 0 0 -1
    outer loop
      vertex -15.6504 -3.32658 0
      vertex -14.9074 -0.880722 0
      vertex -14.6722 -3.11867 0
    endloop
  endfacet
  facet normal -0 0 -1
    outer loop
      vertex -10.037 -11.1472 0
      vertex -10.7061 -11.8903 0
      vertex -12.9443 -9.40456 0
    endloop
  endfacet
  facet normal 0 0 -1
    outer loop
      vertex -14.6167 -6.50778 0
      vertex -12.1353 -8.81677 0
      vertex -12.9443 -9.40456 0
    endloop
  endfacet
  facet normal 0 0 -1
    outer loop
      vertex -1.67245 -15.9123 0
      vertex -3.76901 -14.45 0
      vertex -1.56792 -14.9178 0
    endloop
  endfacet
  facet normal 0 0 -1
    outer loop
      vertex -5.44426 3.95549 0
      vertex -4.44426 4.28041 0
      vertex -4.44426 3.22896 0
    endloop
  endfacet
  facet normal 0 0 -1
    outer loop
      vertex -5.44426 -3.95549 0
      vertex -4.44426 -3.22896 0
      vertex -4.44426 -4.28041 0
    endloop
  endfacet
  facet normal 0 0 -1
    outer loop
      vertex 1.67245 -15.9123 0
      vertex 1.56792 -14.9178 0
      vertex 4.63525 -14.2658 0
    endloop
  endfacet
  facet normal 0 0 -1
    outer loop
      vertex -4.44426 -4.28041 0
      vertex 1.69756 -5.22455 0
      vertex 1.07953 -6.0752 0
    endloop
  endfacet
  facet normal 0 0 -1
    outer loop
      vertex 1.07953 6.0752 0
      vertex 2.07953 6.40012 0
      vertex 1.69756 5.22455 0
    endloop
  endfacet
  facet normal 0 0 -1
    outer loop
      vertex 8 13.8564 0
      vertex 10.7061 11.8903 0
      vertex 10.037 11.1472 0
    endloop
  endfacet
  facet normal 0 0 -1
    outer loop
      vertex -1.67245 15.9123 0
      vertex -3.76901 14.45 0
      vertex -4.94426 15.2169 0
    endloop
  endfacet
  facet normal 0 0 -1
    outer loop
      vertex -7.49998 12.9904 0
      vertex -7.99998 13.8564 0
      vertex -5.44426 13.9056 0
    endloop
  endfacet
  facet normal 0 0 -1
    outer loop
      vertex 1.56792 14.9178 0
      vertex -1.56792 14.9178 0
      vertex -1.67245 15.9123 0
    endloop
  endfacet
  facet normal -0 0 -1
    outer loop
      vertex 1.67245 15.9123 0
      vertex 1.56792 14.9178 0
      vertex -1.67245 15.9123 0
    endloop
  endfacet
  facet normal 0 0 -1
    outer loop
      vertex 4.63525 14.2658 0
      vertex 4.94426 15.2169 0
      vertex 8 13.8564 0
    endloop
  endfacet
  facet normal 0 0 -1
    outer loop
      vertex 7.5 12.9904 0
      vertex 8 13.8564 0
      vertex 10.037 11.1472 0
    endloop
  endfacet
  facet normal 0 0 -1
    outer loop
      vertex 10.037 11.1472 0
      vertex 10.7061 11.8903 0
      vertex 11.5427 9.47488 0
    endloop
  endfacet
  facet normal 0 0 -1
    outer loop
      vertex 2.07953 6.40012 0
      vertex 11.5427 9.47488 0
      vertex 2.69756 5.54947 0
    endloop
  endfacet
  facet normal 0 0 -1
    outer loop
      vertex 11.5427 9.47488 0
      vertex 10.7061 11.8903 0
      vertex 12.9443 9.40456 0
    endloop
  endfacet
  facet normal 0 0 -1
    outer loop
      vertex -16 0 0
      vertex -14.9074 0.880722 0
      vertex -14.382 0 0
    endloop
  endfacet
  facet normal -0 0 -1
    outer loop
      vertex -14.9074 0.880722 0
      vertex -16 0 0
      vertex -15.6504 3.32658 0
    endloop
  endfacet
  facet normal 0 0 -1
    outer loop
      vertex -14.6722 3.11867 0
      vertex -15.6504 3.32658 0
      vertex -13.7032 6.10104 0
    endloop
  endfacet
  facet normal 0 0 -1
    outer loop
      vertex -13.7032 6.10104 0
      vertex -14.6167 6.50778 0
      vertex -12.1353 8.81677 0
    endloop
  endfacet
  facet normal 0 0 -1
    outer loop
      vertex -12.1353 8.81677 0
      vertex -12.9443 9.40456 0
      vertex -10.037 11.1472 0
    endloop
  endfacet
  facet normal 0 0 -1
    outer loop
      vertex -4.44426 4.28041 0
      vertex -5.44426 13.9056 0
      vertex -4.44426 13.678 0
    endloop
  endfacet
  facet normal 0 0 -1
    outer loop
      vertex -10.037 11.1472 0
      vertex -10.7061 11.8903 0
      vertex -7.99998 13.8564 0
    endloop
  endfacet
  facet normal 0 0 -1
    outer loop
      vertex -7.99998 13.8564 0
      vertex -4.94426 15.2169 0
      vertex -5.44426 13.9056 0
    endloop
  endfacet
  facet normal 0 0 -1
    outer loop
      vertex -5.44426 13.9056 0
      vertex -4.94426 15.2169 0
      vertex -4.44426 13.678 0
    endloop
  endfacet
  facet normal 0 0 -1
    outer loop
      vertex -14.9074 0.880722 0
      vertex -5.44426 2.90404 0
      vertex -14.382 0 0
    endloop
  endfacet
  facet normal 0 0 -1
    outer loop
      vertex 1.07953 6.0752 0
      vertex -4.44426 13.678 0
      vertex -3.76901 14.45 0
    endloop
  endfacet
  facet normal -0 0 -1
    outer loop
      vertex -4.44426 4.28041 0
      vertex -5.44426 3.95549 0
      vertex -5.44426 13.9056 0
    endloop
  endfacet
  facet normal 0 0 -1
    outer loop
      vertex -4.44426 13.678 0
      vertex -4.94426 15.2169 0
      vertex -3.76901 14.45 0
    endloop
  endfacet
  facet normal 0 0 -1
    outer loop
      vertex 11.5427 -9.47488 0
      vertex 2.07953 -6.40012 0
      vertex 2.69756 -5.54947 0
    endloop
  endfacet
  facet normal 0 0 -1
    outer loop
      vertex 1.07953 6.0752 0
      vertex -3.76901 14.45 0
      vertex 2.07953 6.40012 0
    endloop
  endfacet
  facet normal 0 0 -1
    outer loop
      vertex 5.49341 0 0
      vertex 6.11145 0.850647 0
      vertex 6.72948 0 0
    endloop
  endfacet
  facet normal -0 0 -1
    outer loop
      vertex 16 0 0
      vertex 14.6722 -3.11867 0
      vertex 15 0 0
    endloop
  endfacet
  facet normal 0 -0 -1
    outer loop
      vertex 1.07953 6.0752 0
      vertex 1.69756 5.22455 0
      vertex -4.44426 4.28041 0
    endloop
  endfacet
  facet normal 0 0 -1
    outer loop
      vertex 6.11145 0.850647 0
      vertex 11.6352 8.45351 0
      vertex 12.578 8.04985 0
    endloop
  endfacet
  facet normal -0 0 -1
    outer loop
      vertex 11.6352 8.45351 0
      vertex 2.69756 5.54947 0
      vertex 11.5427 9.47488 0
    endloop
  endfacet
  facet normal 0 0 -1
    outer loop
      vertex 12.9443 -9.40456 0
      vertex 12.578 -8.04985 0
      vertex 14.6167 -6.50778 0
    endloop
  endfacet
  facet normal 0 -0 -1
    outer loop
      vertex 14.6722 -3.11867 0
      vertex 15.6504 -3.32658 0
      vertex 13.7032 -6.10104 0
    endloop
  endfacet
  facet normal 0 -0 -1
    outer loop
      vertex 5.49341 0 0
      vertex 6.11145 -0.850647 0
      vertex 2.69756 -5.54947 0
    endloop
  endfacet
  facet normal 0 0 -1
    outer loop
      vertex 16 0 0
      vertex 15.6504 -3.32658 0
      vertex 14.6722 -3.11867 0
    endloop
  endfacet
  facet normal 0 0 -1
    outer loop
      vertex 14.6167 6.50778 0
      vertex 12.578 8.04985 0
      vertex 12.9443 9.40456 0
    endloop
  endfacet
  facet normal 0 0 -1
    outer loop
      vertex 12.578 8.04985 0
      vertex 11.6352 8.45351 0
      vertex 12.9443 9.40456 0
    endloop
  endfacet
  facet normal 0 0 -1
    outer loop
      vertex 15.6504 3.32658 0
      vertex 13.7032 6.10104 0
      vertex 14.6167 6.50778 0
    endloop
  endfacet
  facet normal -0 0 -1
    outer loop
      vertex 15.6504 3.32658 0
      vertex 14.6722 3.11867 0
      vertex 13.7032 6.10104 0
    endloop
  endfacet
  facet normal 0 0 -1
    outer loop
      vertex 16 0 0
      vertex 15 0 0
      vertex 14.6722 3.11867 0
    endloop
  endfacet
  facet normal 0 0 -1
    outer loop
      vertex 15.6504 -3.32658 0
      vertex 14.6167 -6.50778 0
      vertex 13.7032 -6.10104 0
    endloop
  endfacet
  facet normal 0 -0 -1
    outer loop
      vertex 13.7032 -6.10104 0
      vertex 14.6167 -6.50778 0
      vertex 12.578 -8.04985 0
    endloop
  endfacet
  facet normal 0 0 -1
    outer loop
      vertex -4.44426 -3.22896 0
      vertex 1.69756 -5.22455 0
      vertex -4.44426 -4.28041 0
    endloop
  endfacet
  facet normal 0 0 -1
    outer loop
      vertex 1.69756 5.22455 0
      vertex 2.69756 5.54947 0
      vertex 5.49341 0 0
    endloop
  endfacet
  facet normal 0 -0 -1
    outer loop
      vertex 2.07953 6.40012 0
      vertex 2.69756 5.54947 0
      vertex 1.69756 5.22455 0
    endloop
  endfacet
  facet normal 0 0 -1
    outer loop
      vertex -5.44426 3.95549 0
      vertex -4.44426 3.22896 0
      vertex -5.44426 2.90404 0
    endloop
  endfacet
  facet normal 0 0 -1
    outer loop
      vertex 2.69756 5.54947 0
      vertex 6.11145 0.850647 0
      vertex 5.49341 0 0
    endloop
  endfacet
  facet normal 0 0 -1
    outer loop
      vertex 5.49341 0 0
      vertex 2.69756 -5.54947 0
      vertex 1.69756 -5.22455 0
    endloop
  endfacet
  facet normal -0 0 -1
    outer loop
      vertex 4.94426 -15.2169 0
      vertex 1.67245 -15.9123 0
      vertex 4.63525 -14.2658 0
    endloop
  endfacet
  facet normal 0 0 -1
    outer loop
      vertex -5.44426 2.90404 0
      vertex -4.44426 3.22896 0
      vertex -4.44426 -3.22896 0
    endloop
  endfacet
  facet normal 0 0 -1
    outer loop
      vertex -16 0 0
      vertex -14.382 0 0
      vertex -14.9074 -0.880722 0
    endloop
  endfacet
  facet normal 0 0 -1
    outer loop
      vertex -14.9074 0.880722 0
      vertex -5.44426 3.95549 0
      vertex -5.44426 2.90404 0
    endloop
  endfacet
  facet normal 0 0 -1
    outer loop
      vertex -5.44426 2.90404 0
      vertex -4.44426 -3.22896 0
      vertex -5.44426 -2.90404 0
    endloop
  endfacet
  facet normal -0 0 -1
    outer loop
      vertex 12.578 -8.04985 0
      vertex 11.6352 -8.45351 0
      vertex 6.11145 -0.850647 0
    endloop
  endfacet
  facet normal 0 -0 -1
    outer loop
      vertex 11.6352 -8.45351 0
      vertex 12.9443 -9.40456 0
      vertex 11.5427 -9.47488 0
    endloop
  endfacet
  facet normal 0 -0 -1
    outer loop
      vertex 1.69756 -5.22455 0
      vertex 2.07953 -6.40012 0
      vertex 1.07953 -6.0752 0
    endloop
  endfacet
  facet normal 0 0 -1
    outer loop
      vertex 11.5427 -9.47488 0
      vertex 10.7061 -11.8903 0
      vertex 10.037 -11.1472 0
    endloop
  endfacet
  facet normal -0 0 -1
    outer loop
      vertex 6.72948 0 0
      vertex 6.11145 -0.850647 0
      vertex 5.49341 0 0
    endloop
  endfacet
  facet normal -0 0 -1
    outer loop
      vertex -4.44426 -13.678 0
      vertex -5.44426 -13.9056 0
      vertex -4.44426 -4.28041 0
    endloop
  endfacet
  facet normal -0 -0 -1
    outer loop
      vertex -5.44426 -13.9056 0
      vertex -4.94426 -15.2169 0
      vertex -8 -13.8564 0
    endloop
  endfacet
  facet normal -0 0 -1
    outer loop
      vertex -7.5 -12.9904 0
      vertex -8 -13.8564 0
      vertex -10.037 -11.1472 0
    endloop
  endfacet
  facet normal 0 -0 -1
    outer loop
      vertex -10.037 -11.1472 0
      vertex -8 -13.8564 0
      vertex -10.7061 -11.8903 0
    endloop
  endfacet
  facet normal 0 -0 -1
    outer loop
      vertex -12.1353 -8.81677 0
      vertex -10.037 -11.1472 0
      vertex -12.9443 -9.40456 0
    endloop
  endfacet
  facet normal 0 0 -1
    outer loop
      vertex -15.6504 -3.32658 0
      vertex -13.7032 -6.10104 0
      vertex -14.6167 -6.50778 0
    endloop
  endfacet
  facet normal 0 -0 -1
    outer loop
      vertex -13.7032 -6.10104 0
      vertex -12.1353 -8.81677 0
      vertex -14.6167 -6.50778 0
    endloop
  endfacet
  facet normal 0 0 -1
    outer loop
      vertex -15.6504 -3.32658 0
      vertex -14.6722 -3.11867 0
      vertex -13.7032 -6.10104 0
    endloop
  endfacet
  facet normal 0 0 -1
    outer loop
      vertex -5.44426 -3.95549 0
      vertex -4.44426 -4.28041 0
      vertex -5.44426 -13.9056 0
    endloop
  endfacet
  facet normal 0 0 -1
    outer loop
      vertex -16 0 0
      vertex -14.9074 -0.880722 0
      vertex -15.6504 -3.32658 0
    endloop
  endfacet
  facet normal 0 0 -1
    outer loop
      vertex -5.44426 -13.9056 0
      vertex -4.44426 -13.678 0
      vertex -4.94426 -15.2169 0
    endloop
  endfacet
  facet normal -0 0 -1
    outer loop
      vertex -4.44426 -3.22896 0
      vertex -5.44426 -3.95549 0
      vertex -5.44426 -2.90404 0
    endloop
  endfacet
  facet normal 0 -0 -1
    outer loop
      vertex -14.382 0 0
      vertex -5.44426 -2.90404 0
      vertex -14.9074 -0.880722 0
    endloop
  endfacet
  facet normal -0 -0 -1
    outer loop
      vertex -5.44426 -2.90404 0
      vertex -5.44426 -3.95549 0
      vertex -14.9074 -0.880722 0
    endloop
  endfacet
  facet normal -0 0 -1
    outer loop
      vertex 8 -13.8564 0
      vertex 4.63525 -14.2658 0
      vertex 7.5 -12.9904 0
    endloop
  endfacet
  facet normal 0 -0 -1
    outer loop
      vertex 11.5427 -9.47488 0
      vertex 12.9443 -9.40456 0
      vertex 10.7061 -11.8903 0
    endloop
  endfacet
  facet normal 0 -0 -1
    outer loop
      vertex 1.56792 -14.9178 0
      vertex 1.67245 -15.9123 0
      vertex -1.67245 -15.9123 0
    endloop
  endfacet
  facet normal -0 0 -1
    outer loop
      vertex 11.6352 -8.45351 0
      vertex 11.5427 -9.47488 0
      vertex 2.69756 -5.54947 0
    endloop
  endfacet
  facet normal 0 -0 -1
    outer loop
      vertex -1.56792 -14.9178 0
      vertex 1.56792 -14.9178 0
      vertex -1.67245 -15.9123 0
    endloop
  endfacet
  facet normal 0 -0 -1
    outer loop
      vertex -4.44426 -13.678 0
      vertex -3.76901 -14.45 0
      vertex -4.94426 -15.2169 0
    endloop
  endfacet
  facet normal 0 -0 -1
    outer loop
      vertex -3.76901 -14.45 0
      vertex -1.67245 -15.9123 0
      vertex -4.94426 -15.2169 0
    endloop
  endfacet
  facet normal -0 0 -1
    outer loop
      vertex 2.69756 -5.54947 0
      vertex 2.07953 -6.40012 0
      vertex 1.69756 -5.22455 0
    endloop
  endfacet
  facet normal 0 -0 -1
    outer loop
      vertex 10.037 -11.1472 0
      vertex 10.7061 -11.8903 0
      vertex 8 -13.8564 0
    endloop
  endfacet
  facet normal 0 0 -1
    outer loop
      vertex -4.44426 -13.678 0
      vertex 1.07953 -6.0752 0
      vertex -3.76901 -14.45 0
    endloop
  endfacet
  facet normal 0 -0 -1
    outer loop
      vertex 1.07953 -6.0752 0
      vertex 2.07953 -6.40012 0
      vertex -3.76901 -14.45 0
    endloop
  endfacet
  facet normal 0 0 -1
    outer loop
      vertex 7.5 -12.9904 0
      vertex 10.037 -11.1472 0
      vertex 8 -13.8564 0
    endloop
  endfacet
  facet normal 0 0 -1
    outer loop
      vertex 4.94426 -15.2169 0
      vertex 4.63525 -14.2658 0
      vertex 8 -13.8564 0
    endloop
  endfacet
  facet normal -0 0 1
    outer loop
      vertex 6.11145 -0.850647 1.5
      vertex 12.578 -8.04985 1.5
      vertex 6.72948 0 1.5
    endloop
  endfacet
  facet normal -0 0 1
    outer loop
      vertex -4.44426 4.28041 1.5
      vertex -4.44426 3.22896 1.5
      vertex 1.69756 5.22455 1.5
    endloop
  endfacet
  facet normal -0 0 1
    outer loop
      vertex 11.6352 -8.45351 1.5
      vertex 12.9443 -9.40456 1.5
      vertex 12.578 -8.04985 1.5
    endloop
  endfacet
  facet normal 0 0 1
    outer loop
      vertex 11.5427 9.47488 1.5
      vertex 11.6352 8.45351 1.5
      vertex 12.9443 9.40456 1.5
    endloop
  endfacet
  facet normal 0 0 1
    outer loop
      vertex 12.578 8.04985 1.5
      vertex 6.11145 0.850647 1.5
      vertex 6.72948 0 1.5
    endloop
  endfacet
  facet normal 0 0 1
    outer loop
      vertex 12.578 8.04985 1.5
      vertex 13.7032 6.10104 1.5
      vertex 14.6167 6.50778 1.5
    endloop
  endfacet
  facet normal 0 0 1
    outer loop
      vertex 15.6504 3.32658 1.5
      vertex 14.6722 3.11867 1.5
      vertex 16 0 1.5
    endloop
  endfacet
  facet normal 0 -0 1
    outer loop
      vertex 7.5 12.9904 1.5
      vertex 8 13.8564 1.5
      vertex 4.63525 14.2658 1.5
    endloop
  endfacet
  facet normal -0 0 1
    outer loop
      vertex 1.56792 14.9178 1.5
      vertex 4.63525 14.2658 1.5
      vertex 1.67245 15.9123 1.5
    endloop
  endfacet
  facet normal 0 -0 1
    outer loop
      vertex 4.63525 14.2658 1.5
      vertex 4.94426 15.2169 1.5
      vertex 1.67245 15.9123 1.5
    endloop
  endfacet
  facet normal 0 0 1
    outer loop
      vertex -3.76901 14.45 1.5
      vertex -1.56792 14.9178 1.5
      vertex -1.67245 15.9123 1.5
    endloop
  endfacet
  facet normal 0 0 1
    outer loop
      vertex -12.9443 9.40456 1.5
      vertex -10.037 11.1472 1.5
      vertex -10.7061 11.8903 1.5
    endloop
  endfacet
  facet normal 0 0 1
    outer loop
      vertex -7.49998 12.9904 1.5
      vertex -7.99998 13.8564 1.5
      vertex -10.037 11.1472 1.5
    endloop
  endfacet
  facet normal 0 0 1
    outer loop
      vertex -15.6504 3.32658 1.5
      vertex -13.7032 6.10104 1.5
      vertex -14.6167 6.50778 1.5
    endloop
  endfacet
  facet normal 0 0 1
    outer loop
      vertex -12.1353 8.81677 1.5
      vertex -12.9443 9.40456 1.5
      vertex -14.6167 6.50778 1.5
    endloop
  endfacet
  facet normal 0 -0 1
    outer loop
      vertex -14.9074 0.880722 1.5
      vertex -14.6722 3.11867 1.5
      vertex -15.6504 3.32658 1.5
    endloop
  endfacet
  facet normal 0 0 1
    outer loop
      vertex -7.5 -12.9904 1.5
      vertex -8 -13.8564 1.5
      vertex -5.44426 -13.9056 1.5
    endloop
  endfacet
  facet normal 0 0 1
    outer loop
      vertex -14.6722 -3.11867 1.5
      vertex -14.9074 -0.880722 1.5
      vertex -15.6504 -3.32658 1.5
    endloop
  endfacet
  facet normal 0 0 1
    outer loop
      vertex -12.9443 -9.40456 1.5
      vertex -10.7061 -11.8903 1.5
      vertex -10.037 -11.1472 1.5
    endloop
  endfacet
  facet normal 0 -0 1
    outer loop
      vertex -12.9443 -9.40456 1.5
      vertex -12.1353 -8.81677 1.5
      vertex -14.6167 -6.50778 1.5
    endloop
  endfacet
  facet normal 0 0 1
    outer loop
      vertex -1.56792 -14.9178 1.5
      vertex -3.76901 -14.45 1.5
      vertex -1.67245 -15.9123 1.5
    endloop
  endfacet
  facet normal 0 -0 1
    outer loop
      vertex -4.44426 3.22896 1.5
      vertex -4.44426 4.28041 1.5
      vertex -5.44426 3.95549 1.5
    endloop
  endfacet
  facet normal 0 -0 1
    outer loop
      vertex -4.44426 -4.28041 1.5
      vertex -4.44426 -3.22896 1.5
      vertex -5.44426 -3.95549 1.5
    endloop
  endfacet
  facet normal 0 0 1
    outer loop
      vertex 4.63525 -14.2658 1.5
      vertex 1.56792 -14.9178 1.5
      vertex 1.67245 -15.9123 1.5
    endloop
  endfacet
  facet normal 0 -0 1
    outer loop
      vertex 1.07953 -6.0752 1.5
      vertex 1.69756 -5.22455 1.5
      vertex -4.44426 -4.28041 1.5
    endloop
  endfacet
  facet normal 0 -0 1
    outer loop
      vertex 1.69756 5.22455 1.5
      vertex 2.07953 6.40012 1.5
      vertex 1.07953 6.0752 1.5
    endloop
  endfacet
  facet normal 0 -0 1
    outer loop
      vertex 10.037 11.1472 1.5
      vertex 10.7061 11.8903 1.5
      vertex 8 13.8564 1.5
    endloop
  endfacet
  facet normal -0 0 1
    outer loop
      vertex -4.94426 15.2169 1.5
      vertex -3.76901 14.45 1.5
      vertex -1.67245 15.9123 1.5
    endloop
  endfacet
  facet normal 0 0 1
    outer loop
      vertex -5.44426 13.9056 1.5
      vertex -7.99998 13.8564 1.5
      vertex -7.49998 12.9904 1.5
    endloop
  endfacet
  facet normal 0 0 1
    outer loop
      vertex -1.67245 15.9123 1.5
      vertex -1.56792 14.9178 1.5
      vertex 1.56792 14.9178 1.5
    endloop
  endfacet
  facet normal -0 0 1
    outer loop
      vertex -1.67245 15.9123 1.5
      vertex 1.56792 14.9178 1.5
      vertex 1.67245 15.9123 1.5
    endloop
  endfacet
  facet normal 0 0 1
    outer loop
      vertex 8 13.8564 1.5
      vertex 4.94426 15.2169 1.5
      vertex 4.63525 14.2658 1.5
    endloop
  endfacet
  facet normal 0 0 1
    outer loop
      vertex 10.037 11.1472 1.5
      vertex 8 13.8564 1.5
      vertex 7.5 12.9904 1.5
    endloop
  endfacet
  facet normal 0 0 1
    outer loop
      vertex 11.5427 9.47488 1.5
      vertex 10.7061 11.8903 1.5
      vertex 10.037 11.1472 1.5
    endloop
  endfacet
  facet normal 0 -0 1
    outer loop
      vertex 2.69756 5.54947 1.5
      vertex 11.5427 9.47488 1.5
      vertex 2.07953 6.40012 1.5
    endloop
  endfacet
  facet normal 0 0 1
    outer loop
      vertex 12.9443 9.40456 1.5
      vertex 10.7061 11.8903 1.5
      vertex 11.5427 9.47488 1.5
    endloop
  endfacet
  facet normal 0 0 1
    outer loop
      vertex -14.382 0 1.5
      vertex -14.9074 0.880722 1.5
      vertex -16 0 1.5
    endloop
  endfacet
  facet normal 0 0 1
    outer loop
      vertex -15.6504 3.32658 1.5
      vertex -16 0 1.5
      vertex -14.9074 0.880722 1.5
    endloop
  endfacet
  facet normal 0 0 1
    outer loop
      vertex -13.7032 6.10104 1.5
      vertex -15.6504 3.32658 1.5
      vertex -14.6722 3.11867 1.5
    endloop
  endfacet
  facet normal 0 0 1
    outer loop
      vertex -12.1353 8.81677 1.5
      vertex -14.6167 6.50778 1.5
      vertex -13.7032 6.10104 1.5
    endloop
  endfacet
  facet normal 0 0 1
    outer loop
      vertex -10.037 11.1472 1.5
      vertex -12.9443 9.40456 1.5
      vertex -12.1353 8.81677 1.5
    endloop
  endfacet
  facet normal 0 0 1
    outer loop
      vertex -4.44426 13.678 1.5
      vertex -5.44426 13.9056 1.5
      vertex -4.44426 4.28041 1.5
    endloop
  endfacet
  facet normal 0 0 1
    outer loop
      vertex -7.99998 13.8564 1.5
      vertex -10.7061 11.8903 1.5
      vertex -10.037 11.1472 1.5
    endloop
  endfacet
  facet normal 0 -0 1
    outer loop
      vertex -5.44426 13.9056 1.5
      vertex -4.94426 15.2169 1.5
      vertex -7.99998 13.8564 1.5
    endloop
  endfacet
  facet normal 0 0 1
    outer loop
      vertex -4.44426 13.678 1.5
      vertex -4.94426 15.2169 1.5
      vertex -5.44426 13.9056 1.5
    endloop
  endfacet
  facet normal 0 -0 1
    outer loop
      vertex -14.382 0 1.5
      vertex -5.44426 2.90404 1.5
      vertex -14.9074 0.880722 1.5
    endloop
  endfacet
  facet normal 0 0 1
    outer loop
      vertex -3.76901 14.45 1.5
      vertex -4.44426 13.678 1.5
      vertex 1.07953 6.0752 1.5
    endloop
  endfacet
  facet normal 0 0 1
    outer loop
      vertex -5.44426 13.9056 1.5
      vertex -5.44426 3.95549 1.5
      vertex -4.44426 4.28041 1.5
    endloop
  endfacet
  facet normal 0 0 1
    outer loop
      vertex -3.76901 14.45 1.5
      vertex -4.94426 15.2169 1.5
      vertex -4.44426 13.678 1.5
    endloop
  endfacet
  facet normal 0 0 1
    outer loop
      vertex 2.69756 -5.54947 1.5
      vertex 2.07953 -6.40012 1.5
      vertex 11.5427 -9.47488 1.5
    endloop
  endfacet
  facet normal 0 0 1
    outer loop
      vertex 2.07953 6.40012 1.5
      vertex -3.76901 14.45 1.5
      vertex 1.07953 6.0752 1.5
    endloop
  endfacet
  facet normal 0 0 1
    outer loop
      vertex 6.72948 0 1.5
      vertex 6.11145 0.850647 1.5
      vertex 5.49341 0 1.5
    endloop
  endfacet
  facet normal -0 0 1
    outer loop
      vertex 15 0 1.5
      vertex 14.6722 -3.11867 1.5
      vertex 16 0 1.5
    endloop
  endfacet
  facet normal 0 0 1
    outer loop
      vertex -4.44426 4.28041 1.5
      vertex 1.69756 5.22455 1.5
      vertex 1.07953 6.0752 1.5
    endloop
  endfacet
  facet normal 0 0 1
    outer loop
      vertex 12.578 8.04985 1.5
      vertex 11.6352 8.45351 1.5
      vertex 6.11145 0.850647 1.5
    endloop
  endfacet
  facet normal 0 0 1
    outer loop
      vertex 11.5427 9.47488 1.5
      vertex 2.69756 5.54947 1.5
      vertex 11.6352 8.45351 1.5
    endloop
  endfacet
  facet normal 0 0 1
    outer loop
      vertex 14.6167 -6.50778 1.5
      vertex 12.578 -8.04985 1.5
      vertex 12.9443 -9.40456 1.5
    endloop
  endfacet
  facet normal 0 0 1
    outer loop
      vertex 13.7032 -6.10104 1.5
      vertex 15.6504 -3.32658 1.5
      vertex 14.6722 -3.11867 1.5
    endloop
  endfacet
  facet normal 0 0 1
    outer loop
      vertex 2.69756 -5.54947 1.5
      vertex 6.11145 -0.850647 1.5
      vertex 5.49341 0 1.5
    endloop
  endfacet
  facet normal -0 0 1
    outer loop
      vertex 14.6722 -3.11867 1.5
      vertex 15.6504 -3.32658 1.5
      vertex 16 0 1.5
    endloop
  endfacet
  facet normal 0 0 1
    outer loop
      vertex 12.9443 9.40456 1.5
      vertex 12.578 8.04985 1.5
      vertex 14.6167 6.50778 1.5
    endloop
  endfacet
  facet normal 0 0 1
    outer loop
      vertex 12.9443 9.40456 1.5
      vertex 11.6352 8.45351 1.5
      vertex 12.578 8.04985 1.5
    endloop
  endfacet
  facet normal 0 0 1
    outer loop
      vertex 14.6167 6.50778 1.5
      vertex 13.7032 6.10104 1.5
      vertex 15.6504 3.32658 1.5
    endloop
  endfacet
  facet normal 0 0 1
    outer loop
      vertex 13.7032 6.10104 1.5
      vertex 14.6722 3.11867 1.5
      vertex 15.6504 3.32658 1.5
    endloop
  endfacet
  facet normal 0 0 1
    outer loop
      vertex 14.6722 3.11867 1.5
      vertex 15 0 1.5
      vertex 16 0 1.5
    endloop
  endfacet
  facet normal -0 0 1
    outer loop
      vertex 13.7032 -6.10104 1.5
      vertex 14.6167 -6.50778 1.5
      vertex 15.6504 -3.32658 1.5
    endloop
  endfacet
  facet normal 0 0 1
    outer loop
      vertex 12.578 -8.04985 1.5
      vertex 14.6167 -6.50778 1.5
      vertex 13.7032 -6.10104 1.5
    endloop
  endfacet
  facet normal -0 0 1
    outer loop
      vertex -4.44426 -4.28041 1.5
      vertex 1.69756 -5.22455 1.5
      vertex -4.44426 -3.22896 1.5
    endloop
  endfacet
  facet normal 0 0 1
    outer loop
      vertex 5.49341 0 1.5
      vertex 2.69756 5.54947 1.5
      vertex 1.69756 5.22455 1.5
    endloop
  endfacet
  facet normal 0 0 1
    outer loop
      vertex 1.69756 5.22455 1.5
      vertex 2.69756 5.54947 1.5
      vertex 2.07953 6.40012 1.5
    endloop
  endfacet
  facet normal 0 0 1
    outer loop
      vertex -5.44426 2.90404 1.5
      vertex -4.44426 3.22896 1.5
      vertex -5.44426 3.95549 1.5
    endloop
  endfacet
  facet normal 0 -0 1
    outer loop
      vertex 5.49341 0 1.5
      vertex 6.11145 0.850647 1.5
      vertex 2.69756 5.54947 1.5
    endloop
  endfacet
  facet normal -0 0 1
    outer loop
      vertex 1.69756 -5.22455 1.5
      vertex 2.69756 -5.54947 1.5
      vertex 5.49341 0 1.5
    endloop
  endfacet
  facet normal 0 0 1
    outer loop
      vertex 4.63525 -14.2658 1.5
      vertex 1.67245 -15.9123 1.5
      vertex 4.94426 -15.2169 1.5
    endloop
  endfacet
  facet normal 0 -0 1
    outer loop
      vertex -4.44426 -3.22896 1.5
      vertex -4.44426 3.22896 1.5
      vertex -5.44426 2.90404 1.5
    endloop
  endfacet
  facet normal 0 -0 1
    outer loop
      vertex -14.9074 -0.880722 1.5
      vertex -14.382 0 1.5
      vertex -16 0 1.5
    endloop
  endfacet
  facet normal 0 -0 1
    outer loop
      vertex -5.44426 2.90404 1.5
      vertex -5.44426 3.95549 1.5
      vertex -14.9074 0.880722 1.5
    endloop
  endfacet
  facet normal -0 0 1
    outer loop
      vertex -5.44426 -2.90404 1.5
      vertex -4.44426 -3.22896 1.5
      vertex -5.44426 2.90404 1.5
    endloop
  endfacet
  facet normal 0 0 1
    outer loop
      vertex 6.11145 -0.850647 1.5
      vertex 11.6352 -8.45351 1.5
      vertex 12.578 -8.04985 1.5
    endloop
  endfacet
  facet normal 0 0 1
    outer loop
      vertex 11.5427 -9.47488 1.5
      vertex 12.9443 -9.40456 1.5
      vertex 11.6352 -8.45351 1.5
    endloop
  endfacet
  facet normal -0 0 1
    outer loop
      vertex 1.07953 -6.0752 1.5
      vertex 2.07953 -6.40012 1.5
      vertex 1.69756 -5.22455 1.5
    endloop
  endfacet
  facet normal -0 0 1
    outer loop
      vertex 10.037 -11.1472 1.5
      vertex 10.7061 -11.8903 1.5
      vertex 11.5427 -9.47488 1.5
    endloop
  endfacet
  facet normal -0 0 1
    outer loop
      vertex 5.49341 0 1.5
      vertex 6.11145 -0.850647 1.5
      vertex 6.72948 0 1.5
    endloop
  endfacet
  facet normal 0 0 1
    outer loop
      vertex -4.44426 -4.28041 1.5
      vertex -5.44426 -13.9056 1.5
      vertex -4.44426 -13.678 1.5
    endloop
  endfacet
  facet normal 0 0 1
    outer loop
      vertex -8 -13.8564 1.5
      vertex -4.94426 -15.2169 1.5
      vertex -5.44426 -13.9056 1.5
    endloop
  endfacet
  facet normal 0 0 1
    outer loop
      vertex -10.037 -11.1472 1.5
      vertex -8 -13.8564 1.5
      vertex -7.5 -12.9904 1.5
    endloop
  endfacet
  facet normal -0 0 1
    outer loop
      vertex -10.7061 -11.8903 1.5
      vertex -8 -13.8564 1.5
      vertex -10.037 -11.1472 1.5
    endloop
  endfacet
  facet normal -0 0 1
    outer loop
      vertex -12.9443 -9.40456 1.5
      vertex -10.037 -11.1472 1.5
      vertex -12.1353 -8.81677 1.5
    endloop
  endfacet
  facet normal 0 -0 1
    outer loop
      vertex -14.6167 -6.50778 1.5
      vertex -13.7032 -6.10104 1.5
      vertex -15.6504 -3.32658 1.5
    endloop
  endfacet
  facet normal -0 0 1
    outer loop
      vertex -14.6167 -6.50778 1.5
      vertex -12.1353 -8.81677 1.5
      vertex -13.7032 -6.10104 1.5
    endloop
  endfacet
  facet normal 0 0 1
    outer loop
      vertex -13.7032 -6.10104 1.5
      vertex -14.6722 -3.11867 1.5
      vertex -15.6504 -3.32658 1.5
    endloop
  endfacet
  facet normal 0 0 1
    outer loop
      vertex -5.44426 -13.9056 1.5
      vertex -4.44426 -4.28041 1.5
      vertex -5.44426 -3.95549 1.5
    endloop
  endfacet
  facet normal 0 -0 1
    outer loop
      vertex -15.6504 -3.32658 1.5
      vertex -14.9074 -0.880722 1.5
      vertex -16 0 1.5
    endloop
  endfacet
  facet normal 0 -0 1
    outer loop
      vertex -4.94426 -15.2169 1.5
      vertex -4.44426 -13.678 1.5
      vertex -5.44426 -13.9056 1.5
    endloop
  endfacet
  facet normal 0 0 1
    outer loop
      vertex -5.44426 -2.90404 1.5
      vertex -5.44426 -3.95549 1.5
      vertex -4.44426 -3.22896 1.5
    endloop
  endfacet
  facet normal -0 0 1
    outer loop
      vertex -14.9074 -0.880722 1.5
      vertex -5.44426 -2.90404 1.5
      vertex -14.382 0 1.5
    endloop
  endfacet
  facet normal 0 0 1
    outer loop
      vertex -14.9074 -0.880722 1.5
      vertex -5.44426 -3.95549 1.5
      vertex -5.44426 -2.90404 1.5
    endloop
  endfacet
  facet normal 0 0 1
    outer loop
      vertex 7.5 -12.9904 1.5
      vertex 4.63525 -14.2658 1.5
      vertex 8 -13.8564 1.5
    endloop
  endfacet
  facet normal 0 0 1
    outer loop
      vertex 10.7061 -11.8903 1.5
      vertex 12.9443 -9.40456 1.5
      vertex 11.5427 -9.47488 1.5
    endloop
  endfacet
  facet normal 0 0 1
    outer loop
      vertex -1.67245 -15.9123 1.5
      vertex 1.67245 -15.9123 1.5
      vertex 1.56792 -14.9178 1.5
    endloop
  endfacet
  facet normal 0 0 1
    outer loop
      vertex 2.69756 -5.54947 1.5
      vertex 11.5427 -9.47488 1.5
      vertex 11.6352 -8.45351 1.5
    endloop
  endfacet
  facet normal 0 0 1
    outer loop
      vertex -1.67245 -15.9123 1.5
      vertex 1.56792 -14.9178 1.5
      vertex -1.56792 -14.9178 1.5
    endloop
  endfacet
  facet normal 0 0 1
    outer loop
      vertex -4.94426 -15.2169 1.5
      vertex -3.76901 -14.45 1.5
      vertex -4.44426 -13.678 1.5
    endloop
  endfacet
  facet normal -0 0 1
    outer loop
      vertex -4.94426 -15.2169 1.5
      vertex -1.67245 -15.9123 1.5
      vertex -3.76901 -14.45 1.5
    endloop
  endfacet
  facet normal 0 0 1
    outer loop
      vertex 1.69756 -5.22455 1.5
      vertex 2.07953 -6.40012 1.5
      vertex 2.69756 -5.54947 1.5
    endloop
  endfacet
  facet normal 0 0 1
    outer loop
      vertex 8 -13.8564 1.5
      vertex 10.7061 -11.8903 1.5
      vertex 10.037 -11.1472 1.5
    endloop
  endfacet
  facet normal 0 -0 1
    outer loop
      vertex -3.76901 -14.45 1.5
      vertex 1.07953 -6.0752 1.5
      vertex -4.44426 -13.678 1.5
    endloop
  endfacet
  facet normal 0 0 1
    outer loop
      vertex -3.76901 -14.45 1.5
      vertex 2.07953 -6.40012 1.5
      vertex 1.07953 -6.0752 1.5
    endloop
  endfacet
  facet normal 0 -0 1
    outer loop
      vertex 8 -13.8564 1.5
      vertex 10.037 -11.1472 1.5
      vertex 7.5 -12.9904 1.5
    endloop
  endfacet
  facet normal 0 0 1
    outer loop
      vertex 8 -13.8564 1.5
      vertex 4.63525 -14.2658 1.5
      vertex 4.94426 -15.2169 1.5
    endloop
  endfacet
  facet normal 0.406737 -0.913545 0
    outer loop
      vertex 8 -13.8564 0
      vertex 4.94426 -15.2169 1.5
      vertex 4.94426 -15.2169 0
    endloop
  endfacet
  facet normal 0.406737 -0.913545 0
    outer loop
      vertex 8 -13.8564 0
      vertex 8 -13.8564 1.5
      vertex 4.94426 -15.2169 1.5
    endloop
  endfacet
  facet normal 0.587787 -0.809016 0
    outer loop
      vertex 10.7061 -11.8903 0
      vertex 8 -13.8564 1.5
      vertex 8 -13.8564 0
    endloop
  endfacet
  facet normal 0.587787 -0.809016 0
    outer loop
      vertex 10.7061 -11.8903 0
      vertex 10.7061 -11.8903 1.5
      vertex 8 -13.8564 1.5
    endloop
  endfacet
  facet normal 0.743145 -0.66913 0
    outer loop
      vertex 12.9443 -9.40456 0
      vertex 10.7061 -11.8903 1.5
      vertex 10.7061 -11.8903 0
    endloop
  endfacet
  facet normal 0.743145 -0.66913 0
    outer loop
      vertex 12.9443 -9.40456 0
      vertex 12.9443 -9.40456 1.5
      vertex 10.7061 -11.8903 1.5
    endloop
  endfacet
  facet normal 0.866025 -0.5 0
    outer loop
      vertex 14.6167 -6.50778 0
      vertex 12.9443 -9.40456 1.5
      vertex 12.9443 -9.40456 0
    endloop
  endfacet
  facet normal 0.866025 -0.5 0
    outer loop
      vertex 14.6167 -6.50778 0
      vertex 14.6167 -6.50778 1.5
      vertex 12.9443 -9.40456 1.5
    endloop
  endfacet
  facet normal 0.951055 -0.30902 0
    outer loop
      vertex 15.6504 -3.32658 0
      vertex 14.6167 -6.50778 1.5
      vertex 14.6167 -6.50778 0
    endloop
  endfacet
  facet normal 0.951055 -0.30902 0
    outer loop
      vertex 15.6504 -3.32658 0
      vertex 15.6504 -3.32658 1.5
      vertex 14.6167 -6.50778 1.5
    endloop
  endfacet
  facet normal 0.994522 -0.104529 0
    outer loop
      vertex 16 0 0
      vertex 15.6504 -3.32658 1.5
      vertex 15.6504 -3.32658 0
    endloop
  endfacet
  facet normal 0.994522 -0.104529 0
    outer loop
      vertex 16 0 0
      vertex 16 0 1.5
      vertex 15.6504 -3.32658 1.5
    endloop
  endfacet
  facet normal 0.994522 0.104529 0
    outer loop
      vertex 15.6504 3.32658 0
      vertex 16 0 1.5
      vertex 16 0 0
    endloop
  endfacet
  facet normal 0.994522 0.104529 -0
    outer loop
      vertex 15.6504 3.32658 0
      vertex 15.6504 3.32658 1.5
      vertex 16 0 1.5
    endloop
  endfacet
  facet normal 0.951055 0.30902 0
    outer loop
      vertex 14.6167 6.50778 0
      vertex 15.6504 3.32658 1.5
      vertex 15.6504 3.32658 0
    endloop
  endfacet
  facet normal 0.951055 0.30902 -0
    outer loop
      vertex 14.6167 6.50778 0
      vertex 14.6167 6.50778 1.5
      vertex 15.6504 3.32658 1.5
    endloop
  endfacet
  facet normal 0.866025 0.5 0
    outer loop
      vertex 12.9443 9.40456 0
      vertex 14.6167 6.50778 1.5
      vertex 14.6167 6.50778 0
    endloop
  endfacet
  facet normal 0.866025 0.5 -0
    outer loop
      vertex 12.9443 9.40456 0
      vertex 12.9443 9.40456 1.5
      vertex 14.6167 6.50778 1.5
    endloop
  endfacet
  facet normal 0.743145 0.66913 0
    outer loop
      vertex 10.7061 11.8903 0
      vertex 12.9443 9.40456 1.5
      vertex 12.9443 9.40456 0
    endloop
  endfacet
  facet normal 0.743145 0.66913 -0
    outer loop
      vertex 10.7061 11.8903 0
      vertex 10.7061 11.8903 1.5
      vertex 12.9443 9.40456 1.5
    endloop
  endfacet
  facet normal 0.587787 0.809016 0
    outer loop
      vertex 8 13.8564 0
      vertex 10.7061 11.8903 1.5
      vertex 10.7061 11.8903 0
    endloop
  endfacet
  facet normal 0.587787 0.809016 -0
    outer loop
      vertex 8 13.8564 0
      vertex 8 13.8564 1.5
      vertex 10.7061 11.8903 1.5
    endloop
  endfacet
  facet normal 0.406737 0.913545 0
    outer loop
      vertex 4.94426 15.2169 0
      vertex 8 13.8564 1.5
      vertex 8 13.8564 0
    endloop
  endfacet
  facet normal 0.406737 0.913545 -0
    outer loop
      vertex 4.94426 15.2169 0
      vertex 4.94426 15.2169 1.5
      vertex 8 13.8564 1.5
    endloop
  endfacet
  facet normal 0.207909 0.978148 0
    outer loop
      vertex 1.67245 15.9123 0
      vertex 4.94426 15.2169 1.5
      vertex 4.94426 15.2169 0
    endloop
  endfacet
  facet normal 0.207909 0.978148 -0
    outer loop
      vertex 1.67245 15.9123 0
      vertex 1.67245 15.9123 1.5
      vertex 4.94426 15.2169 1.5
    endloop
  endfacet
  facet normal 0 1 0
    outer loop
      vertex -1.67245 15.9123 0
      vertex 1.67245 15.9123 1.5
      vertex 1.67245 15.9123 0
    endloop
  endfacet
  facet normal 0 1 0
    outer loop
      vertex -1.67245 15.9123 0
      vertex -1.67245 15.9123 1.5
      vertex 1.67245 15.9123 1.5
    endloop
  endfacet
  facet normal -0.207909 0.978148 0
    outer loop
      vertex -4.94426 15.2169 0
      vertex -1.67245 15.9123 1.5
      vertex -1.67245 15.9123 0
    endloop
  endfacet
  facet normal -0.207909 0.978148 0
    outer loop
      vertex -4.94426 15.2169 0
      vertex -4.94426 15.2169 1.5
      vertex -1.67245 15.9123 1.5
    endloop
  endfacet
  facet normal -0.406739 0.913545 0
    outer loop
      vertex -7.99998 13.8564 0
      vertex -4.94426 15.2169 1.5
      vertex -4.94426 15.2169 0
    endloop
  endfacet
  facet normal -0.406739 0.913545 0
    outer loop
      vertex -7.99998 13.8564 0
      vertex -7.99998 13.8564 1.5
      vertex -4.94426 15.2169 1.5
    endloop
  endfacet
  facet normal -0.587785 0.809017 0
    outer loop
      vertex -10.7061 11.8903 0
      vertex -7.99998 13.8564 1.5
      vertex -7.99998 13.8564 0
    endloop
  endfacet
  facet normal -0.587785 0.809017 0
    outer loop
      vertex -10.7061 11.8903 0
      vertex -10.7061 11.8903 1.5
      vertex -7.99998 13.8564 1.5
    endloop
  endfacet
  facet normal -0.743145 0.66913 0
    outer loop
      vertex -12.9443 9.40456 0
      vertex -10.7061 11.8903 1.5
      vertex -10.7061 11.8903 0
    endloop
  endfacet
  facet normal -0.743145 0.66913 0
    outer loop
      vertex -12.9443 9.40456 0
      vertex -12.9443 9.40456 1.5
      vertex -10.7061 11.8903 1.5
    endloop
  endfacet
  facet normal -0.866025 0.5 0
    outer loop
      vertex -14.6167 6.50778 0
      vertex -12.9443 9.40456 1.5
      vertex -12.9443 9.40456 0
    endloop
  endfacet
  facet normal -0.866025 0.5 0
    outer loop
      vertex -14.6167 6.50778 0
      vertex -14.6167 6.50778 1.5
      vertex -12.9443 9.40456 1.5
    endloop
  endfacet
  facet normal -0.951055 0.30902 0
    outer loop
      vertex -15.6504 3.32658 0
      vertex -14.6167 6.50778 1.5
      vertex -14.6167 6.50778 0
    endloop
  endfacet
  facet normal -0.951055 0.30902 0
    outer loop
      vertex -15.6504 3.32658 0
      vertex -15.6504 3.32658 1.5
      vertex -14.6167 6.50778 1.5
    endloop
  endfacet
  facet normal -0.994522 0.104529 0
    outer loop
      vertex -16 0 0
      vertex -15.6504 3.32658 1.5
      vertex -15.6504 3.32658 0
    endloop
  endfacet
  facet normal -0.994522 0.104529 0
    outer loop
      vertex -16 0 0
      vertex -16 0 1.5
      vertex -15.6504 3.32658 1.5
    endloop
  endfacet
  facet normal -0.994522 -0.104529 0
    outer loop
      vertex -15.6504 -3.32658 0
      vertex -16 0 1.5
      vertex -16 0 0
    endloop
  endfacet
  facet normal -0.994522 -0.104529 0
    outer loop
      vertex -15.6504 -3.32658 0
      vertex -15.6504 -3.32658 1.5
      vertex -16 0 1.5
    endloop
  endfacet
  facet normal -0.951055 -0.30902 0
    outer loop
      vertex -14.6167 -6.50778 0
      vertex -15.6504 -3.32658 1.5
      vertex -15.6504 -3.32658 0
    endloop
  endfacet
  facet normal -0.951055 -0.30902 0
    outer loop
      vertex -14.6167 -6.50778 0
      vertex -14.6167 -6.50778 1.5
      vertex -15.6504 -3.32658 1.5
    endloop
  endfacet
  facet normal -0.866025 -0.5 0
    outer loop
      vertex -12.9443 -9.40456 0
      vertex -14.6167 -6.50778 1.5
      vertex -14.6167 -6.50778 0
    endloop
  endfacet
  facet normal -0.866025 -0.5 0
    outer loop
      vertex -12.9443 -9.40456 0
      vertex -12.9443 -9.40456 1.5
      vertex -14.6167 -6.50778 1.5
    endloop
  endfacet
  facet normal -0.743145 -0.66913 0
    outer loop
      vertex -10.7061 -11.8903 0
      vertex -12.9443 -9.40456 1.5
      vertex -12.9443 -9.40456 0
    endloop
  endfacet
  facet normal -0.743145 -0.66913 0
    outer loop
      vertex -10.7061 -11.8903 0
      vertex -10.7061 -11.8903 1.5
      vertex -12.9443 -9.40456 1.5
    endloop
  endfacet
  facet normal -0.587787 -0.809016 0
    outer loop
      vertex -8 -13.8564 0
      vertex -10.7061 -11.8903 1.5
      vertex -10.7061 -11.8903 0
    endloop
  endfacet
  facet normal -0.587787 -0.809016 0
    outer loop
      vertex -8 -13.8564 0
      vertex -8 -13.8564 1.5
      vertex -10.7061 -11.8903 1.5
    endloop
  endfacet
  facet normal -0.406737 -0.913545 0
    outer loop
      vertex -4.94426 -15.2169 0
      vertex -8 -13.8564 1.5
      vertex -8 -13.8564 0
    endloop
  endfacet
  facet normal -0.406737 -0.913545 0
    outer loop
      vertex -4.94426 -15.2169 0
      vertex -4.94426 -15.2169 1.5
      vertex -8 -13.8564 1.5
    endloop
  endfacet
  facet normal -0.207909 -0.978148 0
    outer loop
      vertex -1.67245 -15.9123 0
      vertex -4.94426 -15.2169 1.5
      vertex -4.94426 -15.2169 0
    endloop
  endfacet
  facet normal -0.207909 -0.978148 0
    outer loop
      vertex -1.67245 -15.9123 0
      vertex -1.67245 -15.9123 1.5
      vertex -4.94426 -15.2169 1.5
    endloop
  endfacet
  facet normal 0 -1 0
    outer loop
      vertex 1.67245 -15.9123 0
      vertex -1.67245 -15.9123 1.5
      vertex -1.67245 -15.9123 0
    endloop
  endfacet
  facet normal 0 -1 0
    outer loop
      vertex 1.67245 -15.9123 0
      vertex 1.67245 -15.9123 1.5
      vertex -1.67245 -15.9123 1.5
    endloop
  endfacet
  facet normal 0.207909 -0.978148 0
    outer loop
      vertex 4.94426 -15.2169 0
      vertex 1.67245 -15.9123 1.5
      vertex 1.67245 -15.9123 0
    endloop
  endfacet
  facet normal 0.207909 -0.978148 0
    outer loop
      vertex 4.94426 -15.2169 0
      vertex 4.94426 -15.2169 1.5
      vertex 1.67245 -15.9123 1.5
    endloop
  endfacet
  facet normal 0.207908 -0.978148 0
    outer loop
      vertex -1.56792 14.9178 0
      vertex -1.56792 14.9178 1.5
      vertex -3.76901 14.45 0
    endloop
  endfacet
  facet normal 0.207908 -0.978148 0
    outer loop
      vertex -3.76901 14.45 1.5
      vertex -3.76901 14.45 0
      vertex -1.56792 14.9178 1.5
    endloop
  endfacet
  facet normal 0 -1 0
    outer loop
      vertex 1.56792 14.9178 0
      vertex 1.56792 14.9178 1.5
      vertex -1.56792 14.9178 0
    endloop
  endfacet
  facet normal 0 -1 0
    outer loop
      vertex -1.56792 14.9178 1.5
      vertex -1.56792 14.9178 0
      vertex 1.56792 14.9178 1.5
    endloop
  endfacet
  facet normal -0.20791 -0.978148 0
    outer loop
      vertex 4.63525 14.2658 0
      vertex 4.63525 14.2658 1.5
      vertex 1.56792 14.9178 0
    endloop
  endfacet
  facet normal -0.20791 -0.978148 -0
    outer loop
      vertex 1.56792 14.9178 1.5
      vertex 1.56792 14.9178 0
      vertex 4.63525 14.2658 1.5
    endloop
  endfacet
  facet normal -0.406737 -0.913545 0
    outer loop
      vertex 7.5 12.9904 0
      vertex 7.5 12.9904 1.5
      vertex 4.63525 14.2658 0
    endloop
  endfacet
  facet normal -0.406737 -0.913545 -0
    outer loop
      vertex 4.63525 14.2658 1.5
      vertex 4.63525 14.2658 0
      vertex 7.5 12.9904 1.5
    endloop
  endfacet
  facet normal -0.587784 -0.809018 0
    outer loop
      vertex 10.037 11.1472 0
      vertex 10.037 11.1472 1.5
      vertex 7.5 12.9904 0
    endloop
  endfacet
  facet normal -0.587784 -0.809018 -0
    outer loop
      vertex 7.5 12.9904 1.5
      vertex 7.5 12.9904 0
      vertex 10.037 11.1472 1.5
    endloop
  endfacet
  facet normal -0.743147 -0.669128 0
    outer loop
      vertex 11.5427 9.47488 0
      vertex 11.5427 9.47488 1.5
      vertex 10.037 11.1472 0
    endloop
  endfacet
  facet normal -0.743147 -0.669128 -0
    outer loop
      vertex 10.037 11.1472 1.5
      vertex 10.037 11.1472 0
      vertex 11.5427 9.47488 1.5
    endloop
  endfacet
  facet normal -0.309017 0.951056 0
    outer loop
      vertex 2.07953 6.40012 0
      vertex 2.07953 6.40012 1.5
      vertex 11.5427 9.47488 0
    endloop
  endfacet
  facet normal -0.309017 0.951056 0
    outer loop
      vertex 11.5427 9.47488 1.5
      vertex 11.5427 9.47488 0
      vertex 2.07953 6.40012 1.5
    endloop
  endfacet
  facet normal 0.809018 0.587784 -0
    outer loop
      vertex -3.76901 14.45 0
      vertex -3.76901 14.45 1.5
      vertex 2.07953 6.40012 0
    endloop
  endfacet
  facet normal 0.809018 0.587784 0
    outer loop
      vertex 2.07953 6.40012 1.5
      vertex 2.07953 6.40012 0
      vertex -3.76901 14.45 1.5
    endloop
  endfacet
  facet normal 0.951056 -0.309019 0
    outer loop
      vertex -13.7032 6.10104 0
      vertex -13.7032 6.10104 1.5
      vertex -14.6722 3.11867 0
    endloop
  endfacet
  facet normal 0.951056 -0.309019 0
    outer loop
      vertex -14.6722 3.11867 1.5
      vertex -14.6722 3.11867 0
      vertex -13.7032 6.10104 1.5
    endloop
  endfacet
  facet normal 0.866027 -0.499998 0
    outer loop
      vertex -12.1353 8.81677 0
      vertex -12.1353 8.81677 1.5
      vertex -13.7032 6.10104 0
    endloop
  endfacet
  facet normal 0.866027 -0.499998 0
    outer loop
      vertex -13.7032 6.10104 1.5
      vertex -13.7032 6.10104 0
      vertex -12.1353 8.81677 1.5
    endloop
  endfacet
  facet normal 0.743145 -0.66913 0
    outer loop
      vertex -10.037 11.1472 0
      vertex -10.037 11.1472 1.5
      vertex -12.1353 8.81677 0
    endloop
  endfacet
  facet normal 0.743145 -0.66913 0
    outer loop
      vertex -12.1353 8.81677 1.5
      vertex -12.1353 8.81677 0
      vertex -10.037 11.1472 1.5
    endloop
  endfacet
  facet normal 0.587782 -0.80902 0
    outer loop
      vertex -7.49998 12.9904 0
      vertex -7.49998 12.9904 1.5
      vertex -10.037 11.1472 0
    endloop
  endfacet
  facet normal 0.587782 -0.80902 0
    outer loop
      vertex -10.037 11.1472 1.5
      vertex -10.037 11.1472 0
      vertex -7.49998 12.9904 1.5
    endloop
  endfacet
  facet normal 0.406737 -0.913545 0
    outer loop
      vertex -5.44426 13.9056 0
      vertex -5.44426 13.9056 1.5
      vertex -7.49998 12.9904 0
    endloop
  endfacet
  facet normal 0.406737 -0.913545 0
    outer loop
      vertex -7.49998 12.9904 1.5
      vertex -7.49998 12.9904 0
      vertex -5.44426 13.9056 1.5
    endloop
  endfacet
  facet normal -1 0 0
    outer loop
      vertex -5.44426 3.95549 0
      vertex -5.44426 3.95549 1.5
      vertex -5.44426 13.9056 0
    endloop
  endfacet
  facet normal -1 -0 -0
    outer loop
      vertex -5.44426 13.9056 1.5
      vertex -5.44426 13.9056 0
      vertex -5.44426 3.95549 1.5
    endloop
  endfacet
  facet normal -0.309017 0.951057 0
    outer loop
      vertex -14.9074 0.880722 0
      vertex -14.9074 0.880722 1.5
      vertex -5.44426 3.95549 0
    endloop
  endfacet
  facet normal -0.309017 0.951057 0
    outer loop
      vertex -5.44426 3.95549 1.5
      vertex -5.44426 3.95549 0
      vertex -14.9074 0.880722 1.5
    endloop
  endfacet
  facet normal 0.994522 -0.104527 0
    outer loop
      vertex -14.6722 3.11867 0
      vertex -14.6722 3.11867 1.5
      vertex -14.9074 0.880722 0
    endloop
  endfacet
  facet normal 0.994522 -0.104527 0
    outer loop
      vertex -14.9074 0.880722 1.5
      vertex -14.9074 0.880722 0
      vertex -14.6722 3.11867 1.5
    endloop
  endfacet
  facet normal -0.809017 -0.587785 0
    outer loop
      vertex 1.07953 6.0752 0
      vertex 1.07953 6.0752 1.5
      vertex -4.44426 13.678 0
    endloop
  endfacet
  facet normal -0.809017 -0.587785 -0
    outer loop
      vertex -4.44426 13.678 1.5
      vertex -4.44426 13.678 0
      vertex 1.07953 6.0752 1.5
    endloop
  endfacet
  facet normal -0.309017 0.951057 0
    outer loop
      vertex -4.44426 4.28041 0
      vertex -4.44426 4.28041 1.5
      vertex 1.07953 6.0752 0
    endloop
  endfacet
  facet normal -0.309017 0.951057 0
    outer loop
      vertex 1.07953 6.0752 1.5
      vertex 1.07953 6.0752 0
      vertex -4.44426 4.28041 1.5
    endloop
  endfacet
  facet normal 1 0 -0
    outer loop
      vertex -4.44426 13.678 0
      vertex -4.44426 13.678 1.5
      vertex -4.44426 4.28041 0
    endloop
  endfacet
  facet normal 1 -0 0
    outer loop
      vertex -4.44426 4.28041 1.5
      vertex -4.44426 4.28041 0
      vertex -4.44426 13.678 1.5
    endloop
  endfacet
  facet normal 0.309018 -0.951056 0
    outer loop
      vertex 11.6352 8.45351 0
      vertex 11.6352 8.45351 1.5
      vertex 2.69756 5.54947 0
    endloop
  endfacet
  facet normal 0.309018 -0.951056 0
    outer loop
      vertex 2.69756 5.54947 1.5
      vertex 2.69756 5.54947 0
      vertex 11.6352 8.45351 1.5
    endloop
  endfacet
  facet normal -0.809018 0.587784 0
    outer loop
      vertex 6.11145 0.850647 0
      vertex 6.11145 0.850647 1.5
      vertex 11.6352 8.45351 0
    endloop
  endfacet
  facet normal -0.809018 0.587784 0
    outer loop
      vertex 11.6352 8.45351 1.5
      vertex 11.6352 8.45351 0
      vertex 6.11145 0.850647 1.5
    endloop
  endfacet
  facet normal 0.809017 0.587785 -0
    outer loop
      vertex 2.69756 5.54947 0
      vertex 2.69756 5.54947 1.5
      vertex 6.11145 0.850647 0
    endloop
  endfacet
  facet normal 0.809017 0.587785 0
    outer loop
      vertex 6.11145 0.850647 1.5
      vertex 6.11145 0.850647 0
      vertex 2.69756 5.54947 1.5
    endloop
  endfacet
  facet normal 0.809017 -0.587785 0
    outer loop
      vertex 12.578 8.04985 0
      vertex 12.578 8.04985 1.5
      vertex 6.72948 0 0
    endloop
  endfacet
  facet normal 0.809017 -0.587785 0
    outer loop
      vertex 6.72948 0 1.5
      vertex 6.72948 0 0
      vertex 12.578 8.04985 1.5
    endloop
  endfacet
  facet normal -0.866027 -0.499998 0
    outer loop
      vertex 13.7032 6.10104 0
      vertex 13.7032 6.10104 1.5
      vertex 12.578 8.04985 0
    endloop
  endfacet
  facet normal -0.866027 -0.499998 -0
    outer loop
      vertex 12.578 8.04985 1.5
      vertex 12.578 8.04985 0
      vertex 13.7032 6.10104 1.5
    endloop
  endfacet
  facet normal -0.951056 -0.309019 0
    outer loop
      vertex 14.6722 3.11867 0
      vertex 14.6722 3.11867 1.5
      vertex 13.7032 6.10104 0
    endloop
  endfacet
  facet normal -0.951056 -0.309019 -0
    outer loop
      vertex 13.7032 6.10104 1.5
      vertex 13.7032 6.10104 0
      vertex 14.6722 3.11867 1.5
    endloop
  endfacet
  facet normal -0.994522 -0.10453 0
    outer loop
      vertex 15 0 0
      vertex 15 0 1.5
      vertex 14.6722 3.11867 0
    endloop
  endfacet
  facet normal -0.994522 -0.10453 -0
    outer loop
      vertex 14.6722 3.11867 1.5
      vertex 14.6722 3.11867 0
      vertex 15 0 1.5
    endloop
  endfacet
  facet normal -0.994522 0.10453 0
    outer loop
      vertex 14.6722 -3.11867 0
      vertex 14.6722 -3.11867 1.5
      vertex 15 0 0
    endloop
  endfacet
  facet normal -0.994522 0.10453 0
    outer loop
      vertex 15 0 1.5
      vertex 15 0 0
      vertex 14.6722 -3.11867 1.5
    endloop
  endfacet
  facet normal -0.951056 0.309019 0
    outer loop
      vertex 13.7032 -6.10104 0
      vertex 13.7032 -6.10104 1.5
      vertex 14.6722 -3.11867 0
    endloop
  endfacet
  facet normal -0.951056 0.309019 0
    outer loop
      vertex 14.6722 -3.11867 1.5
      vertex 14.6722 -3.11867 0
      vertex 13.7032 -6.10104 1.5
    endloop
  endfacet
  facet normal -0.866027 0.499998 0
    outer loop
      vertex 12.578 -8.04985 0
      vertex 12.578 -8.04985 1.5
      vertex 13.7032 -6.10104 0
    endloop
  endfacet
  facet normal -0.866027 0.499998 0
    outer loop
      vertex 13.7032 -6.10104 1.5
      vertex 13.7032 -6.10104 0
      vertex 12.578 -8.04985 1.5
    endloop
  endfacet
  facet normal 0.809017 0.587785 -0
    outer loop
      vertex 6.72948 0 0
      vertex 6.72948 0 1.5
      vertex 12.578 -8.04985 0
    endloop
  endfacet
  facet normal 0.809017 0.587785 0
    outer loop
      vertex 12.578 -8.04985 1.5
      vertex 12.578 -8.04985 0
      vertex 6.72948 0 1.5
    endloop
  endfacet
  facet normal 1 0 -0
    outer loop
      vertex -4.44426 3.22896 0
      vertex -4.44426 3.22896 1.5
      vertex -4.44426 -3.22896 0
    endloop
  endfacet
  facet normal 1 -0 0
    outer loop
      vertex -4.44426 -3.22896 1.5
      vertex -4.44426 -3.22896 0
      vertex -4.44426 3.22896 1.5
    endloop
  endfacet
  facet normal 0.309016 -0.951057 0
    outer loop
      vertex 1.69756 5.22455 0
      vertex 1.69756 5.22455 1.5
      vertex -4.44426 3.22896 0
    endloop
  endfacet
  facet normal 0.309016 -0.951057 0
    outer loop
      vertex -4.44426 3.22896 1.5
      vertex -4.44426 3.22896 0
      vertex 1.69756 5.22455 1.5
    endloop
  endfacet
  facet normal -0.809017 -0.587785 0
    outer loop
      vertex 5.49341 0 0
      vertex 5.49341 0 1.5
      vertex 1.69756 5.22455 0
    endloop
  endfacet
  facet normal -0.809017 -0.587785 -0
    outer loop
      vertex 1.69756 5.22455 1.5
      vertex 1.69756 5.22455 0
      vertex 5.49341 0 1.5
    endloop
  endfacet
  facet normal -0.809017 0.587785 0
    outer loop
      vertex 1.69756 -5.22455 0
      vertex 1.69756 -5.22455 1.5
      vertex 5.49341 0 0
    endloop
  endfacet
  facet normal -0.809017 0.587785 0
    outer loop
      vertex 5.49341 0 1.5
      vertex 5.49341 0 0
      vertex 1.69756 -5.22455 1.5
    endloop
  endfacet
  facet normal 0.309016 0.951057 -0
    outer loop
      vertex -4.44426 -3.22896 0
      vertex -4.44426 -3.22896 1.5
      vertex 1.69756 -5.22455 0
    endloop
  endfacet
  facet normal 0.309016 0.951057 0
    outer loop
      vertex 1.69756 -5.22455 1.5
      vertex 1.69756 -5.22455 0
      vertex -4.44426 -3.22896 1.5
    endloop
  endfacet
  facet normal 0.309017 -0.951057 0
    outer loop
      vertex -5.44426 2.90404 0
      vertex -5.44426 2.90404 1.5
      vertex -14.382 0 0
    endloop
  endfacet
  facet normal 0.309017 -0.951057 0
    outer loop
      vertex -14.382 0 1.5
      vertex -14.382 0 0
      vertex -5.44426 2.90404 1.5
    endloop
  endfacet
  facet normal -1 0 0
    outer loop
      vertex -5.44426 -2.90404 0
      vertex -5.44426 -2.90404 1.5
      vertex -5.44426 2.90404 0
    endloop
  endfacet
  facet normal -1 -0 -0
    outer loop
      vertex -5.44426 2.90404 1.5
      vertex -5.44426 2.90404 0
      vertex -5.44426 -2.90404 1.5
    endloop
  endfacet
  facet normal 0.309017 0.951057 -0
    outer loop
      vertex -14.382 0 0
      vertex -14.382 0 1.5
      vertex -5.44426 -2.90404 0
    endloop
  endfacet
  facet normal 0.309017 0.951057 0
    outer loop
      vertex -5.44426 -2.90404 1.5
      vertex -5.44426 -2.90404 0
      vertex -14.382 0 1.5
    endloop
  endfacet
  facet normal 0.809017 -0.587785 0
    outer loop
      vertex 6.11145 -0.850647 0
      vertex 6.11145 -0.850647 1.5
      vertex 2.69756 -5.54947 0
    endloop
  endfacet
  facet normal 0.809017 -0.587785 0
    outer loop
      vertex 2.69756 -5.54947 1.5
      vertex 2.69756 -5.54947 0
      vertex 6.11145 -0.850647 1.5
    endloop
  endfacet
  facet normal -0.809018 -0.587784 0
    outer loop
      vertex 11.6352 -8.45351 0
      vertex 11.6352 -8.45351 1.5
      vertex 6.11145 -0.850647 0
    endloop
  endfacet
  facet normal -0.809018 -0.587784 -0
    outer loop
      vertex 6.11145 -0.850647 1.5
      vertex 6.11145 -0.850647 0
      vertex 11.6352 -8.45351 1.5
    endloop
  endfacet
  facet normal 0.309018 0.951056 -0
    outer loop
      vertex 2.69756 -5.54947 0
      vertex 2.69756 -5.54947 1.5
      vertex 11.6352 -8.45351 0
    endloop
  endfacet
  facet normal 0.309018 0.951056 0
    outer loop
      vertex 11.6352 -8.45351 1.5
      vertex 11.6352 -8.45351 0
      vertex 2.69756 -5.54947 1.5
    endloop
  endfacet
  facet normal 0.587784 0.809018 -0
    outer loop
      vertex -10.037 -11.1472 0
      vertex -10.037 -11.1472 1.5
      vertex -7.5 -12.9904 0
    endloop
  endfacet
  facet normal 0.587784 0.809018 0
    outer loop
      vertex -7.5 -12.9904 1.5
      vertex -7.5 -12.9904 0
      vertex -10.037 -11.1472 1.5
    endloop
  endfacet
  facet normal 0.743145 0.66913 -0
    outer loop
      vertex -12.1353 -8.81677 0
      vertex -12.1353 -8.81677 1.5
      vertex -10.037 -11.1472 0
    endloop
  endfacet
  facet normal 0.743145 0.66913 0
    outer loop
      vertex -10.037 -11.1472 1.5
      vertex -10.037 -11.1472 0
      vertex -12.1353 -8.81677 1.5
    endloop
  endfacet
  facet normal 0.866027 0.499998 -0
    outer loop
      vertex -13.7032 -6.10104 0
      vertex -13.7032 -6.10104 1.5
      vertex -12.1353 -8.81677 0
    endloop
  endfacet
  facet normal 0.866027 0.499998 0
    outer loop
      vertex -12.1353 -8.81677 1.5
      vertex -12.1353 -8.81677 0
      vertex -13.7032 -6.10104 1.5
    endloop
  endfacet
  facet normal 0.951056 0.309019 -0
    outer loop
      vertex -14.6722 -3.11867 0
      vertex -14.6722 -3.11867 1.5
      vertex -13.7032 -6.10104 0
    endloop
  endfacet
  facet normal 0.951056 0.309019 0
    outer loop
      vertex -13.7032 -6.10104 1.5
      vertex -13.7032 -6.10104 0
      vertex -14.6722 -3.11867 1.5
    endloop
  endfacet
  facet normal 0.994522 0.104527 -0
    outer loop
      vertex -14.9074 -0.880722 0
      vertex -14.9074 -0.880722 1.5
      vertex -14.6722 -3.11867 0
    endloop
  endfacet
  facet normal 0.994522 0.104527 0
    outer loop
      vertex -14.6722 -3.11867 1.5
      vertex -14.6722 -3.11867 0
      vertex -14.9074 -0.880722 1.5
    endloop
  endfacet
  facet normal -0.309017 -0.951057 0
    outer loop
      vertex -5.44426 -3.95549 0
      vertex -5.44426 -3.95549 1.5
      vertex -14.9074 -0.880722 0
    endloop
  endfacet
  facet normal -0.309017 -0.951057 -0
    outer loop
      vertex -14.9074 -0.880722 1.5
      vertex -14.9074 -0.880722 0
      vertex -5.44426 -3.95549 1.5
    endloop
  endfacet
  facet normal -1 0 0
    outer loop
      vertex -5.44426 -13.9056 0
      vertex -5.44426 -13.9056 1.5
      vertex -5.44426 -3.95549 0
    endloop
  endfacet
  facet normal -1 -0 -0
    outer loop
      vertex -5.44426 -3.95549 1.5
      vertex -5.44426 -3.95549 0
      vertex -5.44426 -13.9056 1.5
    endloop
  endfacet
  facet normal 0.406734 0.913547 -0
    outer loop
      vertex -7.5 -12.9904 0
      vertex -7.5 -12.9904 1.5
      vertex -5.44426 -13.9056 0
    endloop
  endfacet
  facet normal 0.406734 0.913547 0
    outer loop
      vertex -5.44426 -13.9056 1.5
      vertex -5.44426 -13.9056 0
      vertex -7.5 -12.9904 1.5
    endloop
  endfacet
  facet normal -0.309017 -0.951057 0
    outer loop
      vertex 1.07953 -6.0752 0
      vertex 1.07953 -6.0752 1.5
      vertex -4.44426 -4.28041 0
    endloop
  endfacet
  facet normal -0.309017 -0.951057 -0
    outer loop
      vertex -4.44426 -4.28041 1.5
      vertex -4.44426 -4.28041 0
      vertex 1.07953 -6.0752 1.5
    endloop
  endfacet
  facet normal -0.809017 0.587785 0
    outer loop
      vertex -4.44426 -13.678 0
      vertex -4.44426 -13.678 1.5
      vertex 1.07953 -6.0752 0
    endloop
  endfacet
  facet normal -0.809017 0.587785 0
    outer loop
      vertex 1.07953 -6.0752 1.5
      vertex 1.07953 -6.0752 0
      vertex -4.44426 -13.678 1.5
    endloop
  endfacet
  facet normal 1 0 -0
    outer loop
      vertex -4.44426 -4.28041 0
      vertex -4.44426 -4.28041 1.5
      vertex -4.44426 -13.678 0
    endloop
  endfacet
  facet normal 1 -0 0
    outer loop
      vertex -4.44426 -13.678 1.5
      vertex -4.44426 -13.678 0
      vertex -4.44426 -4.28041 1.5
    endloop
  endfacet
  facet normal 0.207908 0.978148 -0
    outer loop
      vertex -3.76901 -14.45 0
      vertex -3.76901 -14.45 1.5
      vertex -1.56792 -14.9178 0
    endloop
  endfacet
  facet normal 0.207908 0.978148 0
    outer loop
      vertex -1.56792 -14.9178 1.5
      vertex -1.56792 -14.9178 0
      vertex -3.76901 -14.45 1.5
    endloop
  endfacet
  facet normal 0.809018 -0.587784 0
    outer loop
      vertex 2.07953 -6.40012 0
      vertex 2.07953 -6.40012 1.5
      vertex -3.76901 -14.45 0
    endloop
  endfacet
  facet normal 0.809018 -0.587784 0
    outer loop
      vertex -3.76901 -14.45 1.5
      vertex -3.76901 -14.45 0
      vertex 2.07953 -6.40012 1.5
    endloop
  endfacet
  facet normal -0.309017 -0.951056 0
    outer loop
      vertex 11.5427 -9.47488 0
      vertex 11.5427 -9.47488 1.5
      vertex 2.07953 -6.40012 0
    endloop
  endfacet
  facet normal -0.309017 -0.951056 -0
    outer loop
      vertex 2.07953 -6.40012 1.5
      vertex 2.07953 -6.40012 0
      vertex 11.5427 -9.47488 1.5
    endloop
  endfacet
  facet normal -0.743147 0.669128 0
    outer loop
      vertex 10.037 -11.1472 0
      vertex 10.037 -11.1472 1.5
      vertex 11.5427 -9.47488 0
    endloop
  endfacet
  facet normal -0.743147 0.669128 0
    outer loop
      vertex 11.5427 -9.47488 1.5
      vertex 11.5427 -9.47488 0
      vertex 10.037 -11.1472 1.5
    endloop
  endfacet
  facet normal -0.587784 0.809018 0
    outer loop
      vertex 7.5 -12.9904 0
      vertex 7.5 -12.9904 1.5
      vertex 10.037 -11.1472 0
    endloop
  endfacet
  facet normal -0.587784 0.809018 0
    outer loop
      vertex 10.037 -11.1472 1.5
      vertex 10.037 -11.1472 0
      vertex 7.5 -12.9904 1.5
    endloop
  endfacet
  facet normal -0.406737 0.913545 0
    outer loop
      vertex 4.63525 -14.2658 0
      vertex 4.63525 -14.2658 1.5
      vertex 7.5 -12.9904 0
    endloop
  endfacet
  facet normal -0.406737 0.913545 0
    outer loop
      vertex 7.5 -12.9904 1.5
      vertex 7.5 -12.9904 0
      vertex 4.63525 -14.2658 1.5
    endloop
  endfacet
  facet normal -0.20791 0.978148 0
    outer loop
      vertex 1.56792 -14.9178 0
      vertex 1.56792 -14.9178 1.5
      vertex 4.63525 -14.2658 0
    endloop
  endfacet
  facet normal -0.20791 0.978148 0
    outer loop
      vertex 4.63525 -14.2658 1.5
      vertex 4.63525 -14.2658 0
      vertex 1.56792 -14.9178 1.5
    endloop
  endfacet
  facet normal 0 1 0
    outer loop
      vertex -1.56792 -14.9178 0
      vertex -1.56792 -14.9178 1.5
      vertex 1.56792 -14.9178 0
    endloop
  endfacet
  facet normal 0 1 0
    outer loop
      vertex 1.56792 -14.9178 1.5
      vertex 1.56792 -14.9178 0
      vertex -1.56792 -14.9178 1.5
    endloop
  endfacet
endsolid OpenSCAD_Model
