solid OpenSCAD_Model
  facet normal 0.992709 0.120537 0
    outer loop
      vertex 8 0 1.75
      vertex 7.76753 1.91453 0
      vertex 7.76753 1.91453 1.75
    endloop
  endfacet
  facet normal 0.992709 0.120537 0
    outer loop
      vertex 7.76753 1.91453 0
      vertex 8 0 1.75
      vertex 8 0 0
    endloop
  endfacet
  facet normal -0.992709 0.120537 0
    outer loop
      vertex -8 0 0
      vertex -7.76753 1.91453 1.75
      vertex -7.76753 1.91453 0
    endloop
  endfacet
  facet normal -0.992709 0.120537 0
    outer loop
      vertex -7.76753 1.91453 1.75
      vertex -8 0 0
      vertex -8 0 1.75
    endloop
  endfacet
  facet normal 0.663123 0.748511 -0
    outer loop
      vertex 5.98809 5.30498 0
      vertex 4.54452 6.58387 1.75
      vertex 5.98809 5.30498 1.75
    endloop
  endfacet
  facet normal 0.663123 0.748511 0
    outer loop
      vertex 4.54452 6.58387 1.75
      vertex 5.98809 5.30498 0
      vertex 4.54452 6.58387 0
    endloop
  endfacet
  facet normal -0.663123 0.748511 0
    outer loop
      vertex -4.54452 6.58387 0
      vertex -5.98809 5.30498 1.75
      vertex -4.54452 6.58387 1.75
    endloop
  endfacet
  facet normal -0.663123 0.748511 0
    outer loop
      vertex -5.98809 5.30498 1.75
      vertex -4.54452 6.58387 0
      vertex -5.98809 5.30498 0
    endloop
  endfacet
  facet normal 0 0 1
    outer loop
      vertex 7 0 1.75
      vertex 8 0 1.75
      vertex 7.76753 1.91453 1.75
    endloop
  endfacet
  facet normal -0 0 1
    outer loop
      vertex 6.71645 1.97213 1.75
      vertex 7.76753 1.91453 1.75
      vertex 7.08365 3.71778 1.75
    endloop
  endfacet
  facet normal 0 0 1
    outer loop
      vertex 8 0 1.75
      vertex 7 0 1.75
      vertex 7.76753 -1.91453 1.75
    endloop
  endfacet
  facet normal 0 0 1
    outer loop
      vertex 6.71645 -1.97213 1.75
      vertex 7.76753 -1.91453 1.75
      vertex 7 0 1.75
    endloop
  endfacet
  facet normal 0 0 1
    outer loop
      vertex 7.76753 1.91453 1.75
      vertex 6.71645 1.97213 1.75
      vertex 7 0 1.75
    endloop
  endfacet
  facet normal -0 0 1
    outer loop
      vertex 5.88877 3.78448 1.75
      vertex 7.08365 3.71778 1.75
      vertex 5.98809 5.30498 1.75
    endloop
  endfacet
  facet normal 0 0 1
    outer loop
      vertex 7.08365 3.71778 1.75
      vertex 5.88877 3.78448 1.75
      vertex 6.71645 1.97213 1.75
    endloop
  endfacet
  facet normal 0 0 1
    outer loop
      vertex 5.98809 5.30498 1.75
      vertex 4.58402 5.29025 1.75
      vertex 5.88877 3.78448 1.75
    endloop
  endfacet
  facet normal 0 0 1
    outer loop
      vertex 4.54452 6.58387 1.75
      vertex 4.58402 5.29025 1.75
      vertex 5.98809 5.30498 1.75
    endloop
  endfacet
  facet normal 0 0 1
    outer loop
      vertex 4.54452 6.58387 1.75
      vertex 2.9079 6.36742 1.75
      vertex 4.58402 5.29025 1.75
    endloop
  endfacet
  facet normal 0 0 1
    outer loop
      vertex 2.83684 7.48013 1.75
      vertex 2.9079 6.36742 1.75
      vertex 4.54452 6.58387 1.75
    endloop
  endfacet
  facet normal 0 0 1
    outer loop
      vertex 2 6.63401 1.75
      vertex 2.83684 7.48013 1.75
      vertex 2 7.68639 1.75
    endloop
  endfacet
  facet normal 0 0 1
    outer loop
      vertex 2.83684 7.48013 1.75
      vertex 2 6.63401 1.75
      vertex 2.9079 6.36742 1.75
    endloop
  endfacet
  facet normal 0 0 1
    outer loop
      vertex 7.76753 -1.91453 1.75
      vertex 6.71645 -1.97213 1.75
      vertex 7.08365 -3.71778 1.75
    endloop
  endfacet
  facet normal 0 0 1
    outer loop
      vertex 5.88877 -3.78448 1.75
      vertex 7.08365 -3.71778 1.75
      vertex 6.71645 -1.97213 1.75
    endloop
  endfacet
  facet normal 0 0 1
    outer loop
      vertex 7.08365 -3.71778 1.75
      vertex 5.88877 -3.78448 1.75
      vertex 5.98809 -5.30498 1.75
    endloop
  endfacet
  facet normal -0 0 1
    outer loop
      vertex 4.58402 -5.29025 1.75
      vertex 5.98809 -5.30498 1.75
      vertex 5.88877 -3.78448 1.75
    endloop
  endfacet
  facet normal 0 0 1
    outer loop
      vertex 4.58402 -5.29025 1.75
      vertex 4.54452 -6.58387 1.75
      vertex 5.98809 -5.30498 1.75
    endloop
  endfacet
  facet normal -0 0 1
    outer loop
      vertex 2.9079 -6.36742 1.75
      vertex 4.54452 -6.58387 1.75
      vertex 4.58402 -5.29025 1.75
    endloop
  endfacet
  facet normal 0 0 1
    outer loop
      vertex 2.9079 -6.36742 1.75
      vertex 2.83684 -7.48013 1.75
      vertex 4.54452 -6.58387 1.75
    endloop
  endfacet
  facet normal -0 0 1
    outer loop
      vertex 2 -6.63401 1.75
      vertex 2.83684 -7.48013 1.75
      vertex 2.9079 -6.36742 1.75
    endloop
  endfacet
  facet normal 0 0 1
    outer loop
      vertex 2.83684 -7.48013 1.75
      vertex 2 -6.63401 1.75
      vertex 2 -7.68639 1.75
    endloop
  endfacet
  facet normal -0 0 1
    outer loop
      vertex -2.83684 7.48013 1.75
      vertex -2 6.63401 1.75
      vertex -2 7.68639 1.75
    endloop
  endfacet
  facet normal 0 0 1
    outer loop
      vertex -2.83684 7.48013 1.75
      vertex -2.9079 6.36742 1.75
      vertex -2 6.63401 1.75
    endloop
  endfacet
  facet normal -0 0 1
    outer loop
      vertex -4.54452 6.58387 1.75
      vertex -2.9079 6.36742 1.75
      vertex -2.83684 7.48013 1.75
    endloop
  endfacet
  facet normal 0 0 1
    outer loop
      vertex -4.54452 6.58387 1.75
      vertex -4.58402 5.29025 1.75
      vertex -2.9079 6.36742 1.75
    endloop
  endfacet
  facet normal -0 0 1
    outer loop
      vertex -5.98809 5.30498 1.75
      vertex -4.58402 5.29025 1.75
      vertex -4.54452 6.58387 1.75
    endloop
  endfacet
  facet normal 0 0 1
    outer loop
      vertex -4.58402 5.29025 1.75
      vertex -5.98809 5.30498 1.75
      vertex -5.88877 3.78448 1.75
    endloop
  endfacet
  facet normal 0 0 1
    outer loop
      vertex -7.08365 3.71778 1.75
      vertex -5.88877 3.78448 1.75
      vertex -5.98809 5.30498 1.75
    endloop
  endfacet
  facet normal 0 0 1
    outer loop
      vertex -7.76753 1.91453 1.75
      vertex -6.71645 1.97213 1.75
      vertex -7.08365 3.71778 1.75
    endloop
  endfacet
  facet normal 0 0 1
    outer loop
      vertex -5.88877 3.78448 1.75
      vertex -7.08365 3.71778 1.75
      vertex -6.71645 1.97213 1.75
    endloop
  endfacet
  facet normal 0 0 1
    outer loop
      vertex -2 -6.63401 1.75
      vertex -2.83684 -7.48013 1.75
      vertex -2 -7.68639 1.75
    endloop
  endfacet
  facet normal 0 0 1
    outer loop
      vertex -2.9079 -6.36742 1.75
      vertex -2.83684 -7.48013 1.75
      vertex -2 -6.63401 1.75
    endloop
  endfacet
  facet normal 0 0 1
    outer loop
      vertex -2.9079 -6.36742 1.75
      vertex -4.54452 -6.58387 1.75
      vertex -2.83684 -7.48013 1.75
    endloop
  endfacet
  facet normal 0 0 1
    outer loop
      vertex -4.58402 -5.29025 1.75
      vertex -4.54452 -6.58387 1.75
      vertex -2.9079 -6.36742 1.75
    endloop
  endfacet
  facet normal 0 0 1
    outer loop
      vertex -5.98809 -5.30498 1.75
      vertex -4.58402 -5.29025 1.75
      vertex -5.88877 -3.78448 1.75
    endloop
  endfacet
  facet normal 0 0 1
    outer loop
      vertex -4.58402 -5.29025 1.75
      vertex -5.98809 -5.30498 1.75
      vertex -4.54452 -6.58387 1.75
    endloop
  endfacet
  facet normal -0 0 1
    outer loop
      vertex -7.08365 -3.71778 1.75
      vertex -5.88877 -3.78448 1.75
      vertex -6.71645 -1.97213 1.75
    endloop
  endfacet
  facet normal 0 0 1
    outer loop
      vertex -5.88877 -3.78448 1.75
      vertex -7.08365 -3.71778 1.75
      vertex -5.98809 -5.30498 1.75
    endloop
  endfacet
  facet normal -0 0 1
    outer loop
      vertex -7.76753 -1.91453 1.75
      vertex -6.71645 -1.97213 1.75
      vertex -7 0 1.75
    endloop
  endfacet
  facet normal 0 0 1
    outer loop
      vertex -6.71645 1.97213 1.75
      vertex -7.76753 1.91453 1.75
      vertex -7 0 1.75
    endloop
  endfacet
  facet normal 0 0 1
    outer loop
      vertex -8 0 1.75
      vertex -7 0 1.75
      vertex -7.76753 1.91453 1.75
    endloop
  endfacet
  facet normal 0 0 1
    outer loop
      vertex -6.71645 -1.97213 1.75
      vertex -7.76753 -1.91453 1.75
      vertex -7.08365 -3.71778 1.75
    endloop
  endfacet
  facet normal 0 0 1
    outer loop
      vertex -7 0 1.75
      vertex -8 0 1.75
      vertex -7.76753 -1.91453 1.75
    endloop
  endfacet
  facet normal -0.464723 0.885456 0
    outer loop
      vertex -2.83684 7.48013 0
      vertex -4.54452 6.58387 1.75
      vertex -2.83684 7.48013 1.75
    endloop
  endfacet
  facet normal -0.464723 0.885456 0
    outer loop
      vertex -4.54452 6.58387 1.75
      vertex -2.83684 7.48013 0
      vertex -4.54452 6.58387 0
    endloop
  endfacet
  facet normal 0 0 -1
    outer loop
      vertex -2 -7.68639 0
      vertex -2.83684 -7.48013 0
      vertex -2 -6.5 0
    endloop
  endfacet
  facet normal 0 0 -1
    outer loop
      vertex 4.85738 -0.47841 0
      vertex 8 0 0
      vertex 7.76753 -1.91453 0
    endloop
  endfacet
  facet normal 0 0 -1
    outer loop
      vertex 4.50934 -1.86783 0
      vertex 7.76753 -1.91453 0
      vertex 7.08365 -3.71778 0
    endloop
  endfacet
  facet normal 0 0 -1
    outer loop
      vertex 8 0 0
      vertex 4.85738 -0.47841 0
      vertex 4.875 -0.119661 0
    endloop
  endfacet
  facet normal 0 0 -1
    outer loop
      vertex 4.0583 -2.71167 0
      vertex 7.08365 -3.71778 0
      vertex 5.98809 -5.30498 0
    endloop
  endfacet
  facet normal 0 0 -1
    outer loop
      vertex 4.875 0.119661 0
      vertex 8 0 0
      vertex 4.875 -0.119661 0
    endloop
  endfacet
  facet normal 0 0 -1
    outer loop
      vertex 8 0 0
      vertex 4.85738 0.47841 0
      vertex 7.76753 1.91453 0
    endloop
  endfacet
  facet normal 0 0 -1
    outer loop
      vertex 4.85738 0.47841 0
      vertex 8 0 0
      vertex 4.875 0.119661 0
    endloop
  endfacet
  facet normal 0 0 -1
    outer loop
      vertex 7.76753 -1.91453 0
      vertex 4.78709 -0.952211 0
      vertex 4.85738 -0.47841 0
    endloop
  endfacet
  facet normal 0 0 -1
    outer loop
      vertex 7.76753 -1.91453 0
      vertex 4.67071 -1.41684 0
      vertex 4.78709 -0.952211 0
    endloop
  endfacet
  facet normal 0 0 -1
    outer loop
      vertex 3.0964 -3.77297 0
      vertex 5.98809 -5.30498 0
      vertex 4.54452 -6.58387 0
    endloop
  endfacet
  facet normal 0 0 -1
    outer loop
      vertex 7.76753 -1.91453 0
      vertex 4.50934 -1.86783 0
      vertex 4.67071 -1.41684 0
    endloop
  endfacet
  facet normal 0 0 -1
    outer loop
      vertex 7.08365 -3.71778 0
      vertex 4.30455 -2.30083 0
      vertex 4.50934 -1.86783 0
    endloop
  endfacet
  facet normal 0 0 -1
    outer loop
      vertex 7.08365 -3.71778 0
      vertex 4.0583 -2.71167 0
      vertex 4.30455 -2.30083 0
    endloop
  endfacet
  facet normal 0 0 -1
    outer loop
      vertex 5.98809 -5.30498 0
      vertex 3.77297 -3.0964 0
      vertex 4.0583 -2.71167 0
    endloop
  endfacet
  facet normal 0 0 -1
    outer loop
      vertex 5.98809 -5.30498 0
      vertex 3.4513 -3.4513 0
      vertex 3.77297 -3.0964 0
    endloop
  endfacet
  facet normal 0 0 -1
    outer loop
      vertex 5.98809 -5.30498 0
      vertex 3.0964 -3.77297 0
      vertex 3.4513 -3.4513 0
    endloop
  endfacet
  facet normal 0 0 -1
    outer loop
      vertex 4.54452 -6.58387 0
      vertex 2.95883 -3.875 0
      vertex 3.0964 -3.77297 0
    endloop
  endfacet
  facet normal 0 0 -1
    outer loop
      vertex 2 -6.5 0
      vertex 4.54452 -6.58387 0
      vertex 2.83684 -7.48013 0
    endloop
  endfacet
  facet normal 0 0 -1
    outer loop
      vertex 2 -6.5 0
      vertex 2.83684 -7.48013 0
      vertex 2 -7.68639 0
    endloop
  endfacet
  facet normal 0 0 -1
    outer loop
      vertex 4.54452 -6.58387 0
      vertex 2 -6.5 0
      vertex 2.95883 -3.875 0
    endloop
  endfacet
  facet normal 0 0 -1
    outer loop
      vertex -2 -6.5 0
      vertex 2.95883 -3.875 0
      vertex 2 -6.5 0
    endloop
  endfacet
  facet normal 0 0 -1
    outer loop
      vertex -2 -6.5 0
      vertex -2.95883 -3.875 0
      vertex 2.95883 -3.875 0
    endloop
  endfacet
  facet normal 0 0 -1
    outer loop
      vertex -4.54452 -6.58387 0
      vertex -2 -6.5 0
      vertex -2.83684 -7.48013 0
    endloop
  endfacet
  facet normal -0 0 -1
    outer loop
      vertex -2 -6.5 0
      vertex -4.54452 -6.58387 0
      vertex -2.95883 -3.875 0
    endloop
  endfacet
  facet normal -0 0 -1
    outer loop
      vertex -2.95883 -3.875 0
      vertex -4.54452 -6.58387 0
      vertex -3.0964 -3.77297 0
    endloop
  endfacet
  facet normal 0 0 -1
    outer loop
      vertex -5.98809 -5.30498 0
      vertex -3.0964 -3.77297 0
      vertex -4.54452 -6.58387 0
    endloop
  endfacet
  facet normal -0 0 -1
    outer loop
      vertex -3.0964 -3.77297 0
      vertex -5.98809 -5.30498 0
      vertex -3.4513 -3.4513 0
    endloop
  endfacet
  facet normal -0 0 -1
    outer loop
      vertex -3.4513 -3.4513 0
      vertex -5.98809 -5.30498 0
      vertex -3.77297 -3.0964 0
    endloop
  endfacet
  facet normal -0 0 -1
    outer loop
      vertex -3.77297 -3.0964 0
      vertex -5.98809 -5.30498 0
      vertex -4.0583 -2.71167 0
    endloop
  endfacet
  facet normal 0 0 -1
    outer loop
      vertex -7.08365 -3.71778 0
      vertex -4.0583 -2.71167 0
      vertex -5.98809 -5.30498 0
    endloop
  endfacet
  facet normal -0 0 -1
    outer loop
      vertex -4.0583 -2.71167 0
      vertex -7.08365 -3.71778 0
      vertex -4.30455 -2.30083 0
    endloop
  endfacet
  facet normal -0 0 -1
    outer loop
      vertex -4.30455 -2.30083 0
      vertex -7.08365 -3.71778 0
      vertex -4.50934 -1.86783 0
    endloop
  endfacet
  facet normal 0 0 -1
    outer loop
      vertex -7.76753 -1.91453 0
      vertex -4.50934 -1.86783 0
      vertex -7.08365 -3.71778 0
    endloop
  endfacet
  facet normal -0 0 -1
    outer loop
      vertex -4.78709 -0.952211 0
      vertex -7.76753 -1.91453 0
      vertex -4.85738 -0.47841 0
    endloop
  endfacet
  facet normal -0 0 -1
    outer loop
      vertex -4.67071 -1.41684 0
      vertex -7.76753 -1.91453 0
      vertex -4.78709 -0.952211 0
    endloop
  endfacet
  facet normal -0 0 -1
    outer loop
      vertex -4.50934 -1.86783 0
      vertex -7.76753 -1.91453 0
      vertex -4.67071 -1.41684 0
    endloop
  endfacet
  facet normal 0 0 -1
    outer loop
      vertex 4.78709 0.952211 0
      vertex 7.76753 1.91453 0
      vertex 4.85738 0.47841 0
    endloop
  endfacet
  facet normal 0 0 -1
    outer loop
      vertex 4.67071 1.41684 0
      vertex 7.76753 1.91453 0
      vertex 4.78709 0.952211 0
    endloop
  endfacet
  facet normal 0 0 -1
    outer loop
      vertex 4.50934 1.86783 0
      vertex 7.76753 1.91453 0
      vertex 4.67071 1.41684 0
    endloop
  endfacet
  facet normal -0 0 -1
    outer loop
      vertex 7.76753 1.91453 0
      vertex 4.50934 1.86783 0
      vertex 7.08365 3.71778 0
    endloop
  endfacet
  facet normal 0 0 -1
    outer loop
      vertex 4.30455 2.30083 0
      vertex 7.08365 3.71778 0
      vertex 4.50934 1.86783 0
    endloop
  endfacet
  facet normal 0 0 -1
    outer loop
      vertex 4.0583 2.71167 0
      vertex 7.08365 3.71778 0
      vertex 4.30455 2.30083 0
    endloop
  endfacet
  facet normal -0 0 -1
    outer loop
      vertex 7.08365 3.71778 0
      vertex 4.0583 2.71167 0
      vertex 5.98809 5.30498 0
    endloop
  endfacet
  facet normal 0 0 -1
    outer loop
      vertex 3.77297 3.0964 0
      vertex 5.98809 5.30498 0
      vertex 4.0583 2.71167 0
    endloop
  endfacet
  facet normal 0 0 -1
    outer loop
      vertex 3.4513 3.4513 0
      vertex 5.98809 5.30498 0
      vertex 3.77297 3.0964 0
    endloop
  endfacet
  facet normal 0 0 -1
    outer loop
      vertex 3.0964 3.77297 0
      vertex 5.98809 5.30498 0
      vertex 3.4513 3.4513 0
    endloop
  endfacet
  facet normal -0 0 -1
    outer loop
      vertex 5.98809 5.30498 0
      vertex 3.0964 3.77297 0
      vertex 4.54452 6.58387 0
    endloop
  endfacet
  facet normal 0 0 -1
    outer loop
      vertex 2.95883 3.875 0
      vertex 4.54452 6.58387 0
      vertex 3.0964 3.77297 0
    endloop
  endfacet
  facet normal 0 0 -1
    outer loop
      vertex 2 6.5 0
      vertex 4.54452 6.58387 0
      vertex 2.95883 3.875 0
    endloop
  endfacet
  facet normal -0 0 -1
    outer loop
      vertex 4.54452 6.58387 0
      vertex 2 6.5 0
      vertex 2.83684 7.48013 0
    endloop
  endfacet
  facet normal 0 0 -1
    outer loop
      vertex 2.95883 3.875 0
      vertex -2 6.5 0
      vertex 2 6.5 0
    endloop
  endfacet
  facet normal 0 0 -1
    outer loop
      vertex -2 6.5 0
      vertex -2.83684 7.48013 0
      vertex -2 7.68639 0
    endloop
  endfacet
  facet normal 0 0 -1
    outer loop
      vertex -2.95883 3.875 0
      vertex -2 6.5 0
      vertex 2.95883 3.875 0
    endloop
  endfacet
  facet normal 0 0 -1
    outer loop
      vertex -4.54452 6.58387 0
      vertex -2 6.5 0
      vertex -2.95883 3.875 0
    endloop
  endfacet
  facet normal 0 0 -1
    outer loop
      vertex -4.54452 6.58387 0
      vertex -2.95883 3.875 0
      vertex -3.0964 3.77297 0
    endloop
  endfacet
  facet normal 0 0 -1
    outer loop
      vertex -5.98809 5.30498 0
      vertex -3.0964 3.77297 0
      vertex -3.4513 3.4513 0
    endloop
  endfacet
  facet normal 0 0 -1
    outer loop
      vertex -5.98809 5.30498 0
      vertex -3.4513 3.4513 0
      vertex -3.77297 3.0964 0
    endloop
  endfacet
  facet normal 0 0 -1
    outer loop
      vertex -5.98809 5.30498 0
      vertex -3.77297 3.0964 0
      vertex -4.0583 2.71167 0
    endloop
  endfacet
  facet normal 0 0 -1
    outer loop
      vertex -7.08365 3.71778 0
      vertex -4.0583 2.71167 0
      vertex -4.30455 2.30083 0
    endloop
  endfacet
  facet normal 0 0 -1
    outer loop
      vertex -7.08365 3.71778 0
      vertex -4.30455 2.30083 0
      vertex -4.50934 1.86783 0
    endloop
  endfacet
  facet normal 0 0 -1
    outer loop
      vertex -2 6.5 0
      vertex -4.54452 6.58387 0
      vertex -2.83684 7.48013 0
    endloop
  endfacet
  facet normal 0 0 -1
    outer loop
      vertex -7.76753 1.91453 0
      vertex -4.50934 1.86783 0
      vertex -4.67071 1.41684 0
    endloop
  endfacet
  facet normal 0 0 -1
    outer loop
      vertex -7.76753 1.91453 0
      vertex -4.67071 1.41684 0
      vertex -4.78709 0.952211 0
    endloop
  endfacet
  facet normal 0 0 -1
    outer loop
      vertex -7.76753 1.91453 0
      vertex -4.78709 0.952211 0
      vertex -4.85738 0.47841 0
    endloop
  endfacet
  facet normal 0 0 -1
    outer loop
      vertex -8 0 0
      vertex -4.85738 -0.47841 0
      vertex -7.76753 -1.91453 0
    endloop
  endfacet
  facet normal 0 0 -1
    outer loop
      vertex -4.85738 -0.47841 0
      vertex -8 0 0
      vertex -4.875 -0.119661 0
    endloop
  endfacet
  facet normal 0 0 -1
    outer loop
      vertex -3.0964 3.77297 0
      vertex -5.98809 5.30498 0
      vertex -4.54452 6.58387 0
    endloop
  endfacet
  facet normal 0 0 -1
    outer loop
      vertex -4.875 -0.119661 0
      vertex -8 0 0
      vertex -4.875 0.119661 0
    endloop
  endfacet
  facet normal 0 0 -1
    outer loop
      vertex -4.0583 2.71167 0
      vertex -7.08365 3.71778 0
      vertex -5.98809 5.30498 0
    endloop
  endfacet
  facet normal -0 0 -1
    outer loop
      vertex -4.875 0.119661 0
      vertex -8 0 0
      vertex -4.85738 0.47841 0
    endloop
  endfacet
  facet normal 0 0 -1
    outer loop
      vertex -4.50934 1.86783 0
      vertex -7.76753 1.91453 0
      vertex -7.08365 3.71778 0
    endloop
  endfacet
  facet normal -0 0 -1
    outer loop
      vertex -4.85738 0.47841 0
      vertex -8 0 0
      vertex -7.76753 1.91453 0
    endloop
  endfacet
  facet normal -0 0 -1
    outer loop
      vertex 2.83684 7.48013 0
      vertex 2 6.5 0
      vertex 2 7.68639 0
    endloop
  endfacet
  facet normal 0.935016 -0.354605 0
    outer loop
      vertex 7.08365 -3.71778 1.75
      vertex 7.76753 -1.91453 0
      vertex 7.76753 -1.91453 1.75
    endloop
  endfacet
  facet normal 0.935016 -0.354605 0
    outer loop
      vertex 7.76753 -1.91453 0
      vertex 7.08365 -3.71778 1.75
      vertex 7.08365 -3.71778 0
    endloop
  endfacet
  facet normal 0.822984 0.568065 0
    outer loop
      vertex 7.08365 3.71778 1.75
      vertex 5.98809 5.30498 0
      vertex 5.98809 5.30498 1.75
    endloop
  endfacet
  facet normal 0.822984 0.568065 0
    outer loop
      vertex 5.98809 5.30498 0
      vertex 7.08365 3.71778 1.75
      vertex 7.08365 3.71778 0
    endloop
  endfacet
  facet normal 0.935016 0.354605 0
    outer loop
      vertex 7.76753 1.91453 1.75
      vertex 7.08365 3.71778 0
      vertex 7.08365 3.71778 1.75
    endloop
  endfacet
  facet normal 0.935016 0.354605 0
    outer loop
      vertex 7.08365 3.71778 0
      vertex 7.76753 1.91453 1.75
      vertex 7.76753 1.91453 0
    endloop
  endfacet
  facet normal 0.239316 0.970942 -0
    outer loop
      vertex 2.83684 7.48013 0
      vertex 2 7.68639 1.75
      vertex 2.83684 7.48013 1.75
    endloop
  endfacet
  facet normal 0.239316 0.970942 0
    outer loop
      vertex 2 7.68639 1.75
      vertex 2.83684 7.48013 0
      vertex 2 7.68639 0
    endloop
  endfacet
  facet normal 0.464723 0.885456 -0
    outer loop
      vertex 4.54452 6.58387 0
      vertex 2.83684 7.48013 1.75
      vertex 4.54452 6.58387 1.75
    endloop
  endfacet
  facet normal 0.464723 0.885456 0
    outer loop
      vertex 2.83684 7.48013 1.75
      vertex 4.54452 6.58387 0
      vertex 2.83684 7.48013 0
    endloop
  endfacet
  facet normal -0.822984 0.568065 0
    outer loop
      vertex -7.08365 3.71778 0
      vertex -5.98809 5.30498 1.75
      vertex -5.98809 5.30498 0
    endloop
  endfacet
  facet normal -0.822984 0.568065 0
    outer loop
      vertex -5.98809 5.30498 1.75
      vertex -7.08365 3.71778 0
      vertex -7.08365 3.71778 1.75
    endloop
  endfacet
  facet normal -0.935016 0.354605 0
    outer loop
      vertex -7.76753 1.91453 0
      vertex -7.08365 3.71778 1.75
      vertex -7.08365 3.71778 0
    endloop
  endfacet
  facet normal -0.935016 0.354605 0
    outer loop
      vertex -7.08365 3.71778 1.75
      vertex -7.76753 1.91453 0
      vertex -7.76753 1.91453 1.75
    endloop
  endfacet
  facet normal -0.239316 0.970942 0
    outer loop
      vertex -2 7.68639 0
      vertex -2.83684 7.48013 1.75
      vertex -2 7.68639 1.75
    endloop
  endfacet
  facet normal -0.239316 0.970942 0
    outer loop
      vertex -2.83684 7.48013 1.75
      vertex -2 7.68639 0
      vertex -2.83684 7.48013 0
    endloop
  endfacet
  facet normal 0.992709 -0.120537 0
    outer loop
      vertex 7.76753 -1.91453 1.75
      vertex 8 0 0
      vertex 8 0 1.75
    endloop
  endfacet
  facet normal 0.992709 -0.120537 0
    outer loop
      vertex 8 0 0
      vertex 7.76753 -1.91453 1.75
      vertex 7.76753 -1.91453 0
    endloop
  endfacet
  facet normal -0.992709 -0.120537 0
    outer loop
      vertex -7.76753 -1.91453 0
      vertex -8 0 1.75
      vertex -8 0 0
    endloop
  endfacet
  facet normal -0.992709 -0.120537 0
    outer loop
      vertex -8 0 1.75
      vertex -7.76753 -1.91453 0
      vertex -7.76753 -1.91453 1.75
    endloop
  endfacet
  facet normal 0.663123 -0.748511 0
    outer loop
      vertex 4.54452 -6.58387 0
      vertex 5.98809 -5.30498 1.75
      vertex 4.54452 -6.58387 1.75
    endloop
  endfacet
  facet normal 0.663123 -0.748511 0
    outer loop
      vertex 5.98809 -5.30498 1.75
      vertex 4.54452 -6.58387 0
      vertex 5.98809 -5.30498 0
    endloop
  endfacet
  facet normal 0.822984 -0.568065 0
    outer loop
      vertex 5.98809 -5.30498 1.75
      vertex 7.08365 -3.71778 0
      vertex 7.08365 -3.71778 1.75
    endloop
  endfacet
  facet normal 0.822984 -0.568065 0
    outer loop
      vertex 7.08365 -3.71778 0
      vertex 5.98809 -5.30498 1.75
      vertex 5.98809 -5.30498 0
    endloop
  endfacet
  facet normal -0.663123 -0.748511 0
    outer loop
      vertex -5.98809 -5.30498 0
      vertex -4.54452 -6.58387 1.75
      vertex -5.98809 -5.30498 1.75
    endloop
  endfacet
  facet normal -0.663123 -0.748511 -0
    outer loop
      vertex -4.54452 -6.58387 1.75
      vertex -5.98809 -5.30498 0
      vertex -4.54452 -6.58387 0
    endloop
  endfacet
  facet normal -0.935016 -0.354605 0
    outer loop
      vertex -7.08365 -3.71778 0
      vertex -7.76753 -1.91453 1.75
      vertex -7.76753 -1.91453 0
    endloop
  endfacet
  facet normal -0.935016 -0.354605 0
    outer loop
      vertex -7.76753 -1.91453 1.75
      vertex -7.08365 -3.71778 0
      vertex -7.08365 -3.71778 1.75
    endloop
  endfacet
  facet normal -0.822984 -0.568065 0
    outer loop
      vertex -5.98809 -5.30498 0
      vertex -7.08365 -3.71778 1.75
      vertex -7.08365 -3.71778 0
    endloop
  endfacet
  facet normal -0.822984 -0.568065 0
    outer loop
      vertex -7.08365 -3.71778 1.75
      vertex -5.98809 -5.30498 0
      vertex -5.98809 -5.30498 1.75
    endloop
  endfacet
  facet normal 0.239316 -0.970942 0
    outer loop
      vertex 2 -7.68639 0
      vertex 2.83684 -7.48013 1.75
      vertex 2 -7.68639 1.75
    endloop
  endfacet
  facet normal 0.239316 -0.970942 0
    outer loop
      vertex 2.83684 -7.48013 1.75
      vertex 2 -7.68639 0
      vertex 2.83684 -7.48013 0
    endloop
  endfacet
  facet normal 0.464723 -0.885456 0
    outer loop
      vertex 2.83684 -7.48013 0
      vertex 4.54452 -6.58387 1.75
      vertex 2.83684 -7.48013 1.75
    endloop
  endfacet
  facet normal 0.464723 -0.885456 0
    outer loop
      vertex 4.54452 -6.58387 1.75
      vertex 2.83684 -7.48013 0
      vertex 4.54452 -6.58387 0
    endloop
  endfacet
  facet normal -0.464723 -0.885456 0
    outer loop
      vertex -4.54452 -6.58387 0
      vertex -2.83684 -7.48013 1.75
      vertex -4.54452 -6.58387 1.75
    endloop
  endfacet
  facet normal -0.464723 -0.885456 -0
    outer loop
      vertex -2.83684 -7.48013 1.75
      vertex -4.54452 -6.58387 0
      vertex -2.83684 -7.48013 0
    endloop
  endfacet
  facet normal -0.239316 -0.970942 0
    outer loop
      vertex -2.83684 -7.48013 0
      vertex -2 -7.68639 1.75
      vertex -2.83684 -7.48013 1.75
    endloop
  endfacet
  facet normal -0.239316 -0.970942 -0
    outer loop
      vertex -2 -7.68639 1.75
      vertex -2.83684 -7.48013 0
      vertex -2 -7.68639 0
    endloop
  endfacet
  facet normal -0.989821 -0.142315 0
    outer loop
      vertex 7 0 0.75
      vertex 6.71645 1.97213 1.75
      vertex 6.71645 1.97213 0.75
    endloop
  endfacet
  facet normal -0.989821 -0.142315 0
    outer loop
      vertex 6.71645 1.97213 1.75
      vertex 7 0 0.75
      vertex 7 0 1.75
    endloop
  endfacet
  facet normal 0.989821 -0.142315 0
    outer loop
      vertex -7 0 1.75
      vertex -6.71645 1.97213 0.75
      vertex -6.71645 1.97213 1.75
    endloop
  endfacet
  facet normal 0.989821 -0.142315 0
    outer loop
      vertex -6.71645 1.97213 0.75
      vertex -7 0 1.75
      vertex -7 0 0.75
    endloop
  endfacet
  facet normal -0.75575 -0.654861 0
    outer loop
      vertex 5.88877 3.78448 0.75
      vertex 4.58402 5.29025 1.75
      vertex 4.58402 5.29025 0.75
    endloop
  endfacet
  facet normal -0.75575 -0.654861 0
    outer loop
      vertex 4.58402 5.29025 1.75
      vertex 5.88877 3.78448 0.75
      vertex 5.88877 3.78448 1.75
    endloop
  endfacet
  facet normal -0.909632 -0.415415 0
    outer loop
      vertex 6.71645 1.97213 0.75
      vertex 5.88877 3.78448 1.75
      vertex 5.88877 3.78448 0.75
    endloop
  endfacet
  facet normal -0.909632 -0.415415 0
    outer loop
      vertex 5.88877 3.78448 1.75
      vertex 6.71645 1.97213 0.75
      vertex 6.71645 1.97213 1.75
    endloop
  endfacet
  facet normal 0.540641 -0.841254 0
    outer loop
      vertex -4.58402 5.29025 0.75
      vertex -2.9079 6.36742 1.75
      vertex -4.58402 5.29025 1.75
    endloop
  endfacet
  facet normal 0.540641 -0.841254 0
    outer loop
      vertex -2.9079 6.36742 1.75
      vertex -4.58402 5.29025 0.75
      vertex -2.9079 6.36742 0.75
    endloop
  endfacet
  facet normal 0.281733 -0.959493 0
    outer loop
      vertex -2.9079 6.36742 0.75
      vertex -2 6.63401 1.75
      vertex -2.9079 6.36742 1.75
    endloop
  endfacet
  facet normal 0.281733 -0.959493 0
    outer loop
      vertex -2 6.63401 1.75
      vertex -2.9079 6.36742 0.75
      vertex -2 6.63401 0.75
    endloop
  endfacet
  facet normal -0.281733 -0.959493 0
    outer loop
      vertex 2 6.63401 0.75
      vertex 2.9079 6.36742 1.75
      vertex 2 6.63401 1.75
    endloop
  endfacet
  facet normal -0.281733 -0.959493 -0
    outer loop
      vertex 2.9079 6.36742 1.75
      vertex 2 6.63401 0.75
      vertex 2.9079 6.36742 0.75
    endloop
  endfacet
  facet normal -0.540641 -0.841254 0
    outer loop
      vertex 2.9079 6.36742 0.75
      vertex 4.58402 5.29025 1.75
      vertex 2.9079 6.36742 1.75
    endloop
  endfacet
  facet normal -0.540641 -0.841254 -0
    outer loop
      vertex 4.58402 5.29025 1.75
      vertex 2.9079 6.36742 0.75
      vertex 4.58402 5.29025 0.75
    endloop
  endfacet
  facet normal 0.75575 -0.654861 0
    outer loop
      vertex -5.88877 3.78448 1.75
      vertex -4.58402 5.29025 0.75
      vertex -4.58402 5.29025 1.75
    endloop
  endfacet
  facet normal 0.75575 -0.654861 0
    outer loop
      vertex -4.58402 5.29025 0.75
      vertex -5.88877 3.78448 1.75
      vertex -5.88877 3.78448 0.75
    endloop
  endfacet
  facet normal 0.909632 -0.415415 0
    outer loop
      vertex -6.71645 1.97213 1.75
      vertex -5.88877 3.78448 0.75
      vertex -5.88877 3.78448 1.75
    endloop
  endfacet
  facet normal 0.909632 -0.415415 0
    outer loop
      vertex -5.88877 3.78448 0.75
      vertex -6.71645 1.97213 1.75
      vertex -6.71645 1.97213 0.75
    endloop
  endfacet
  facet normal -0.989821 0.142315 0
    outer loop
      vertex 6.71645 -1.97213 0.75
      vertex 7 0 1.75
      vertex 7 0 0.75
    endloop
  endfacet
  facet normal -0.989821 0.142315 0
    outer loop
      vertex 7 0 1.75
      vertex 6.71645 -1.97213 0.75
      vertex 6.71645 -1.97213 1.75
    endloop
  endfacet
  facet normal 0.989821 0.142315 0
    outer loop
      vertex -6.71645 -1.97213 1.75
      vertex -7 0 0.75
      vertex -7 0 1.75
    endloop
  endfacet
  facet normal 0.989821 0.142315 0
    outer loop
      vertex -7 0 0.75
      vertex -6.71645 -1.97213 1.75
      vertex -6.71645 -1.97213 0.75
    endloop
  endfacet
  facet normal -0.75575 0.654861 0
    outer loop
      vertex 4.58402 -5.29025 0.75
      vertex 5.88877 -3.78448 1.75
      vertex 5.88877 -3.78448 0.75
    endloop
  endfacet
  facet normal -0.75575 0.654861 0
    outer loop
      vertex 5.88877 -3.78448 1.75
      vertex 4.58402 -5.29025 0.75
      vertex 4.58402 -5.29025 1.75
    endloop
  endfacet
  facet normal -0.909632 0.415415 0
    outer loop
      vertex 5.88877 -3.78448 0.75
      vertex 6.71645 -1.97213 1.75
      vertex 6.71645 -1.97213 0.75
    endloop
  endfacet
  facet normal -0.909632 0.415415 0
    outer loop
      vertex 6.71645 -1.97213 1.75
      vertex 5.88877 -3.78448 0.75
      vertex 5.88877 -3.78448 1.75
    endloop
  endfacet
  facet normal 0.540641 0.841254 -0
    outer loop
      vertex -2.9079 -6.36742 0.75
      vertex -4.58402 -5.29025 1.75
      vertex -2.9079 -6.36742 1.75
    endloop
  endfacet
  facet normal 0.540641 0.841254 0
    outer loop
      vertex -4.58402 -5.29025 1.75
      vertex -2.9079 -6.36742 0.75
      vertex -4.58402 -5.29025 0.75
    endloop
  endfacet
  facet normal 0.909632 0.415415 0
    outer loop
      vertex -5.88877 -3.78448 1.75
      vertex -6.71645 -1.97213 0.75
      vertex -6.71645 -1.97213 1.75
    endloop
  endfacet
  facet normal 0.909632 0.415415 0
    outer loop
      vertex -6.71645 -1.97213 0.75
      vertex -5.88877 -3.78448 1.75
      vertex -5.88877 -3.78448 0.75
    endloop
  endfacet
  facet normal 0.75575 0.654861 0
    outer loop
      vertex -4.58402 -5.29025 1.75
      vertex -5.88877 -3.78448 0.75
      vertex -5.88877 -3.78448 1.75
    endloop
  endfacet
  facet normal 0.75575 0.654861 0
    outer loop
      vertex -5.88877 -3.78448 0.75
      vertex -4.58402 -5.29025 1.75
      vertex -4.58402 -5.29025 0.75
    endloop
  endfacet
  facet normal -0.281733 0.959493 0
    outer loop
      vertex 2.9079 -6.36742 0.75
      vertex 2 -6.63401 1.75
      vertex 2.9079 -6.36742 1.75
    endloop
  endfacet
  facet normal -0.281733 0.959493 0
    outer loop
      vertex 2 -6.63401 1.75
      vertex 2.9079 -6.36742 0.75
      vertex 2 -6.63401 0.75
    endloop
  endfacet
  facet normal 0.281733 0.959493 -0
    outer loop
      vertex -2 -6.63401 0.75
      vertex -2.9079 -6.36742 1.75
      vertex -2 -6.63401 1.75
    endloop
  endfacet
  facet normal 0.281733 0.959493 0
    outer loop
      vertex -2.9079 -6.36742 1.75
      vertex -2 -6.63401 0.75
      vertex -2.9079 -6.36742 0.75
    endloop
  endfacet
  facet normal -0.540641 0.841254 0
    outer loop
      vertex 4.58402 -5.29025 0.75
      vertex 2.9079 -6.36742 1.75
      vertex 4.58402 -5.29025 1.75
    endloop
  endfacet
  facet normal -0.540641 0.841254 0
    outer loop
      vertex 2.9079 -6.36742 1.75
      vertex 4.58402 -5.29025 0.75
      vertex 2.9079 -6.36742 0.75
    endloop
  endfacet
  facet normal -0.998795 -0.0490668 0
    outer loop
      vertex 4.875 0.119661 0
      vertex 4.85738 0.47841 0.75
      vertex 4.85738 0.47841 0
    endloop
  endfacet
  facet normal -0.998795 -0.0490668 0
    outer loop
      vertex 4.85738 0.47841 0.75
      vertex 4.875 0.119661 0
      vertex 4.875 0.119661 0.75
    endloop
  endfacet
  facet normal 0.998795 -0.0490668 0
    outer loop
      vertex -4.875 0.119661 0.75
      vertex -4.85738 0.47841 0
      vertex -4.85738 0.47841 0.75
    endloop
  endfacet
  facet normal 0.998795 -0.0490668 0
    outer loop
      vertex -4.85738 0.47841 0
      vertex -4.875 0.119661 0.75
      vertex -4.875 0.119661 0
    endloop
  endfacet
  facet normal -0.671558 -0.740952 0
    outer loop
      vertex 3.0964 3.77297 0
      vertex 3.4513 3.4513 0.75
      vertex 3.0964 3.77297 0.75
    endloop
  endfacet
  facet normal -0.671558 -0.740952 -0
    outer loop
      vertex 3.4513 3.4513 0.75
      vertex 3.0964 3.77297 0
      vertex 3.4513 3.4513 0
    endloop
  endfacet
  facet normal 0.671558 -0.740952 0
    outer loop
      vertex -3.4513 3.4513 0
      vertex -3.0964 3.77297 0.75
      vertex -3.4513 3.4513 0.75
    endloop
  endfacet
  facet normal 0.671558 -0.740952 0
    outer loop
      vertex -3.0964 3.77297 0.75
      vertex -3.4513 3.4513 0
      vertex -3.0964 3.77297 0
    endloop
  endfacet
  facet normal -0.903989 -0.427555 0
    outer loop
      vertex 4.50934 1.86783 0
      vertex 4.30455 2.30083 0.75
      vertex 4.30455 2.30083 0
    endloop
  endfacet
  facet normal -0.903989 -0.427555 0
    outer loop
      vertex 4.30455 2.30083 0.75
      vertex 4.50934 1.86783 0
      vertex 4.50934 1.86783 0.75
    endloop
  endfacet
  facet normal 0.903989 -0.427555 0
    outer loop
      vertex -4.50934 1.86783 0.75
      vertex -4.30455 2.30083 0
      vertex -4.30455 2.30083 0.75
    endloop
  endfacet
  facet normal 0.903989 -0.427555 0
    outer loop
      vertex -4.30455 2.30083 0
      vertex -4.50934 1.86783 0.75
      vertex -4.50934 1.86783 0
    endloop
  endfacet
  facet normal -0.970031 0.24298 0
    outer loop
      vertex 4.67071 -1.41684 0
      vertex 4.78709 -0.952211 0.75
      vertex 4.78709 -0.952211 0
    endloop
  endfacet
  facet normal -0.970031 0.24298 0
    outer loop
      vertex 4.78709 -0.952211 0.75
      vertex 4.67071 -1.41684 0
      vertex 4.67071 -1.41684 0.75
    endloop
  endfacet
  facet normal -0.970031 -0.24298 0
    outer loop
      vertex 4.78709 0.952211 0
      vertex 4.67071 1.41684 0.75
      vertex 4.67071 1.41684 0
    endloop
  endfacet
  facet normal -0.970031 -0.24298 0
    outer loop
      vertex 4.67071 1.41684 0.75
      vertex 4.78709 0.952211 0
      vertex 4.78709 0.952211 0.75
    endloop
  endfacet
  facet normal -0.989176 -0.146731 0
    outer loop
      vertex 4.85738 0.47841 0
      vertex 4.78709 0.952211 0.75
      vertex 4.78709 0.952211 0
    endloop
  endfacet
  facet normal -0.989176 -0.146731 0
    outer loop
      vertex 4.78709 0.952211 0.75
      vertex 4.85738 0.47841 0
      vertex 4.85738 0.47841 0.75
    endloop
  endfacet
  facet normal -0.941544 -0.33689 0
    outer loop
      vertex 4.67071 1.41684 0
      vertex 4.50934 1.86783 0.75
      vertex 4.50934 1.86783 0
    endloop
  endfacet
  facet normal -0.941544 -0.33689 0
    outer loop
      vertex 4.50934 1.86783 0.75
      vertex 4.67071 1.41684 0
      vertex 4.67071 1.41684 0.75
    endloop
  endfacet
  facet normal -0.803208 -0.595699 0
    outer loop
      vertex 4.0583 2.71167 0
      vertex 3.77297 3.0964 0.75
      vertex 3.77297 3.0964 0
    endloop
  endfacet
  facet normal -0.803208 -0.595699 0
    outer loop
      vertex 3.77297 3.0964 0.75
      vertex 4.0583 2.71167 0
      vertex 4.0583 2.71167 0.75
    endloop
  endfacet
  facet normal -0.740952 -0.671558 0
    outer loop
      vertex 3.77297 3.0964 0
      vertex 3.4513 3.4513 0.75
      vertex 3.4513 3.4513 0
    endloop
  endfacet
  facet normal -0.740952 -0.671558 0
    outer loop
      vertex 3.4513 3.4513 0.75
      vertex 3.77297 3.0964 0
      vertex 3.77297 3.0964 0.75
    endloop
  endfacet
  facet normal -0.857728 -0.514104 0
    outer loop
      vertex 4.30455 2.30083 0
      vertex 4.0583 2.71167 0.75
      vertex 4.0583 2.71167 0
    endloop
  endfacet
  facet normal -0.857728 -0.514104 0
    outer loop
      vertex 4.0583 2.71167 0.75
      vertex 4.30455 2.30083 0
      vertex 4.30455 2.30083 0.75
    endloop
  endfacet
  facet normal -0.595699 -0.803208 0
    outer loop
      vertex 2.95883 3.875 0
      vertex 3.0964 3.77297 0.75
      vertex 2.95883 3.875 0.75
    endloop
  endfacet
  facet normal -0.595699 -0.803208 -0
    outer loop
      vertex 3.0964 3.77297 0.75
      vertex 2.95883 3.875 0
      vertex 3.0964 3.77297 0
    endloop
  endfacet
  facet normal 0.970031 -0.24298 0
    outer loop
      vertex -4.78709 0.952211 0.75
      vertex -4.67071 1.41684 0
      vertex -4.67071 1.41684 0.75
    endloop
  endfacet
  facet normal 0.970031 -0.24298 0
    outer loop
      vertex -4.67071 1.41684 0
      vertex -4.78709 0.952211 0.75
      vertex -4.78709 0.952211 0
    endloop
  endfacet
  facet normal 0.803208 -0.595699 0
    outer loop
      vertex -4.0583 2.71167 0.75
      vertex -3.77297 3.0964 0
      vertex -3.77297 3.0964 0.75
    endloop
  endfacet
  facet normal 0.803208 -0.595699 0
    outer loop
      vertex -3.77297 3.0964 0
      vertex -4.0583 2.71167 0.75
      vertex -4.0583 2.71167 0
    endloop
  endfacet
  facet normal 0.740952 -0.671558 0
    outer loop
      vertex -3.77297 3.0964 0.75
      vertex -3.4513 3.4513 0
      vertex -3.4513 3.4513 0.75
    endloop
  endfacet
  facet normal 0.740952 -0.671558 0
    outer loop
      vertex -3.4513 3.4513 0
      vertex -3.77297 3.0964 0.75
      vertex -3.77297 3.0964 0
    endloop
  endfacet
  facet normal 0.857728 -0.514104 0
    outer loop
      vertex -4.30455 2.30083 0.75
      vertex -4.0583 2.71167 0
      vertex -4.0583 2.71167 0.75
    endloop
  endfacet
  facet normal 0.857728 -0.514104 0
    outer loop
      vertex -4.0583 2.71167 0
      vertex -4.30455 2.30083 0.75
      vertex -4.30455 2.30083 0
    endloop
  endfacet
  facet normal 0.941544 -0.33689 0
    outer loop
      vertex -4.67071 1.41684 0.75
      vertex -4.50934 1.86783 0
      vertex -4.50934 1.86783 0.75
    endloop
  endfacet
  facet normal 0.941544 -0.33689 0
    outer loop
      vertex -4.50934 1.86783 0
      vertex -4.67071 1.41684 0.75
      vertex -4.67071 1.41684 0
    endloop
  endfacet
  facet normal 0.989176 -0.146731 0
    outer loop
      vertex -4.85738 0.47841 0.75
      vertex -4.78709 0.952211 0
      vertex -4.78709 0.952211 0.75
    endloop
  endfacet
  facet normal 0.989176 -0.146731 0
    outer loop
      vertex -4.78709 0.952211 0
      vertex -4.85738 0.47841 0.75
      vertex -4.85738 0.47841 0
    endloop
  endfacet
  facet normal 0 0 1
    outer loop
      vertex -2 6.63401 0.75
      vertex -2.9079 6.36742 0.75
      vertex -2 6.5 0.75
    endloop
  endfacet
  facet normal -0 0 1
    outer loop
      vertex 4.85738 0.47841 0.75
      vertex 7 0 0.75
      vertex 6.71645 1.97213 0.75
    endloop
  endfacet
  facet normal 0 0 1
    outer loop
      vertex 4.50934 1.86783 0.75
      vertex 6.71645 1.97213 0.75
      vertex 5.88877 3.78448 0.75
    endloop
  endfacet
  facet normal 0 0 1
    outer loop
      vertex 7 0 0.75
      vertex 4.85738 0.47841 0.75
      vertex 4.875 0.119661 0.75
    endloop
  endfacet
  facet normal 0 0 1
    outer loop
      vertex 4.85738 -0.47841 0.75
      vertex 7 0 0.75
      vertex 4.875 -0.119661 0.75
    endloop
  endfacet
  facet normal 0 0 1
    outer loop
      vertex 4.875 -0.119661 0.75
      vertex 7 0 0.75
      vertex 4.875 0.119661 0.75
    endloop
  endfacet
  facet normal 0 0 1
    outer loop
      vertex 6.71645 1.97213 0.75
      vertex 4.78709 0.952211 0.75
      vertex 4.85738 0.47841 0.75
    endloop
  endfacet
  facet normal 0 0 1
    outer loop
      vertex 6.71645 1.97213 0.75
      vertex 4.67071 1.41684 0.75
      vertex 4.78709 0.952211 0.75
    endloop
  endfacet
  facet normal 0 0 1
    outer loop
      vertex 3.77297 3.0964 0.75
      vertex 5.88877 3.78448 0.75
      vertex 4.58402 5.29025 0.75
    endloop
  endfacet
  facet normal 0 0 1
    outer loop
      vertex 6.71645 1.97213 0.75
      vertex 4.50934 1.86783 0.75
      vertex 4.67071 1.41684 0.75
    endloop
  endfacet
  facet normal 0 0 1
    outer loop
      vertex 5.88877 3.78448 0.75
      vertex 4.30455 2.30083 0.75
      vertex 4.50934 1.86783 0.75
    endloop
  endfacet
  facet normal 0 0 1
    outer loop
      vertex 5.88877 3.78448 0.75
      vertex 4.0583 2.71167 0.75
      vertex 4.30455 2.30083 0.75
    endloop
  endfacet
  facet normal 0 0 1
    outer loop
      vertex 5.88877 3.78448 0.75
      vertex 3.77297 3.0964 0.75
      vertex 4.0583 2.71167 0.75
    endloop
  endfacet
  facet normal 0 0 1
    outer loop
      vertex 4.58402 5.29025 0.75
      vertex 3.4513 3.4513 0.75
      vertex 3.77297 3.0964 0.75
    endloop
  endfacet
  facet normal 0 0 1
    outer loop
      vertex 4.58402 5.29025 0.75
      vertex 3.0964 3.77297 0.75
      vertex 3.4513 3.4513 0.75
    endloop
  endfacet
  facet normal 0 0 1
    outer loop
      vertex 4.58402 5.29025 0.75
      vertex 2.95883 3.875 0.75
      vertex 3.0964 3.77297 0.75
    endloop
  endfacet
  facet normal 0 0 1
    outer loop
      vertex 2.9079 6.36742 0.75
      vertex 2.95883 3.875 0.75
      vertex 4.58402 5.29025 0.75
    endloop
  endfacet
  facet normal -0 0 1
    outer loop
      vertex 2 6.5 0.75
      vertex 2.9079 6.36742 0.75
      vertex 2 6.63401 0.75
    endloop
  endfacet
  facet normal 0 0 1
    outer loop
      vertex 2.9079 6.36742 0.75
      vertex 2 6.5 0.75
      vertex 2.95883 3.875 0.75
    endloop
  endfacet
  facet normal -0 0 1
    outer loop
      vertex -2 6.5 0.75
      vertex 2.95883 3.875 0.75
      vertex 2 6.5 0.75
    endloop
  endfacet
  facet normal 0 0 1
    outer loop
      vertex -2.95883 3.875 0.75
      vertex -2 6.5 0.75
      vertex -2.9079 6.36742 0.75
    endloop
  endfacet
  facet normal 0 0 1
    outer loop
      vertex -2 6.5 0.75
      vertex -2.95883 3.875 0.75
      vertex 2.95883 3.875 0.75
    endloop
  endfacet
  facet normal -0 0 1
    outer loop
      vertex -4.58402 5.29025 0.75
      vertex -2.95883 3.875 0.75
      vertex -2.9079 6.36742 0.75
    endloop
  endfacet
  facet normal 0 0 1
    outer loop
      vertex -2.95883 3.875 0.75
      vertex -4.58402 5.29025 0.75
      vertex -3.0964 3.77297 0.75
    endloop
  endfacet
  facet normal 0 0 1
    outer loop
      vertex -3.0964 3.77297 0.75
      vertex -4.58402 5.29025 0.75
      vertex -3.4513 3.4513 0.75
    endloop
  endfacet
  facet normal 0 0 1
    outer loop
      vertex -3.4513 3.4513 0.75
      vertex -4.58402 5.29025 0.75
      vertex -3.77297 3.0964 0.75
    endloop
  endfacet
  facet normal -0 0 1
    outer loop
      vertex -5.88877 3.78448 0.75
      vertex -3.77297 3.0964 0.75
      vertex -4.58402 5.29025 0.75
    endloop
  endfacet
  facet normal 0 0 1
    outer loop
      vertex -3.77297 3.0964 0.75
      vertex -5.88877 3.78448 0.75
      vertex -4.0583 2.71167 0.75
    endloop
  endfacet
  facet normal 0 0 1
    outer loop
      vertex -4.0583 2.71167 0.75
      vertex -5.88877 3.78448 0.75
      vertex -4.30455 2.30083 0.75
    endloop
  endfacet
  facet normal 0 0 1
    outer loop
      vertex -4.30455 2.30083 0.75
      vertex -5.88877 3.78448 0.75
      vertex -4.50934 1.86783 0.75
    endloop
  endfacet
  facet normal -0 0 1
    outer loop
      vertex -6.71645 1.97213 0.75
      vertex -4.50934 1.86783 0.75
      vertex -5.88877 3.78448 0.75
    endloop
  endfacet
  facet normal 0 0 1
    outer loop
      vertex -4.50934 1.86783 0.75
      vertex -6.71645 1.97213 0.75
      vertex -4.67071 1.41684 0.75
    endloop
  endfacet
  facet normal 0 0 1
    outer loop
      vertex -7 0 0.75
      vertex -4.85738 0.47841 0.75
      vertex -6.71645 1.97213 0.75
    endloop
  endfacet
  facet normal 0 0 1
    outer loop
      vertex -4.78709 0.952211 0.75
      vertex -6.71645 1.97213 0.75
      vertex -4.85738 0.47841 0.75
    endloop
  endfacet
  facet normal 0 0 1
    outer loop
      vertex -4.67071 1.41684 0.75
      vertex -6.71645 1.97213 0.75
      vertex -4.78709 0.952211 0.75
    endloop
  endfacet
  facet normal 0 0 1
    outer loop
      vertex 7 0 0.75
      vertex 4.85738 -0.47841 0.75
      vertex 6.71645 -1.97213 0.75
    endloop
  endfacet
  facet normal -0 0 1
    outer loop
      vertex 4.78709 -0.952211 0.75
      vertex 6.71645 -1.97213 0.75
      vertex 4.85738 -0.47841 0.75
    endloop
  endfacet
  facet normal -0 0 1
    outer loop
      vertex 4.67071 -1.41684 0.75
      vertex 6.71645 -1.97213 0.75
      vertex 4.78709 -0.952211 0.75
    endloop
  endfacet
  facet normal -0 0 1
    outer loop
      vertex 4.50934 -1.86783 0.75
      vertex 6.71645 -1.97213 0.75
      vertex 4.67071 -1.41684 0.75
    endloop
  endfacet
  facet normal 0 0 1
    outer loop
      vertex 6.71645 -1.97213 0.75
      vertex 4.50934 -1.86783 0.75
      vertex 5.88877 -3.78448 0.75
    endloop
  endfacet
  facet normal -0 0 1
    outer loop
      vertex 4.30455 -2.30083 0.75
      vertex 5.88877 -3.78448 0.75
      vertex 4.50934 -1.86783 0.75
    endloop
  endfacet
  facet normal -0 0 1
    outer loop
      vertex 4.0583 -2.71167 0.75
      vertex 5.88877 -3.78448 0.75
      vertex 4.30455 -2.30083 0.75
    endloop
  endfacet
  facet normal -0 0 1
    outer loop
      vertex 3.77297 -3.0964 0.75
      vertex 5.88877 -3.78448 0.75
      vertex 4.0583 -2.71167 0.75
    endloop
  endfacet
  facet normal 0 0 1
    outer loop
      vertex 5.88877 -3.78448 0.75
      vertex 3.77297 -3.0964 0.75
      vertex 4.58402 -5.29025 0.75
    endloop
  endfacet
  facet normal -0 0 1
    outer loop
      vertex 3.4513 -3.4513 0.75
      vertex 4.58402 -5.29025 0.75
      vertex 3.77297 -3.0964 0.75
    endloop
  endfacet
  facet normal -0 0 1
    outer loop
      vertex 3.0964 -3.77297 0.75
      vertex 4.58402 -5.29025 0.75
      vertex 3.4513 -3.4513 0.75
    endloop
  endfacet
  facet normal -0 0 1
    outer loop
      vertex 2.95883 -3.875 0.75
      vertex 4.58402 -5.29025 0.75
      vertex 3.0964 -3.77297 0.75
    endloop
  endfacet
  facet normal 0 0 1
    outer loop
      vertex 2.95883 -3.875 0.75
      vertex 2.9079 -6.36742 0.75
      vertex 4.58402 -5.29025 0.75
    endloop
  endfacet
  facet normal 0 0 1
    outer loop
      vertex 2.95883 -3.875 0.75
      vertex 2 -6.5 0.75
      vertex 2.9079 -6.36742 0.75
    endloop
  endfacet
  facet normal 0 0 1
    outer loop
      vertex 2.95883 -3.875 0.75
      vertex -2 -6.5 0.75
      vertex 2 -6.5 0.75
    endloop
  endfacet
  facet normal 0 0 1
    outer loop
      vertex -2 -6.5 0.75
      vertex -2.9079 -6.36742 0.75
      vertex -2 -6.63401 0.75
    endloop
  endfacet
  facet normal -0 0 1
    outer loop
      vertex -2.95883 -3.875 0.75
      vertex -2 -6.5 0.75
      vertex 2.95883 -3.875 0.75
    endloop
  endfacet
  facet normal 0 0 1
    outer loop
      vertex -2 -6.5 0.75
      vertex -2.95883 -3.875 0.75
      vertex -2.9079 -6.36742 0.75
    endloop
  endfacet
  facet normal 0 0 1
    outer loop
      vertex -4.58402 -5.29025 0.75
      vertex -2.95883 -3.875 0.75
      vertex -3.0964 -3.77297 0.75
    endloop
  endfacet
  facet normal 0 0 1
    outer loop
      vertex -4.58402 -5.29025 0.75
      vertex -3.0964 -3.77297 0.75
      vertex -3.4513 -3.4513 0.75
    endloop
  endfacet
  facet normal 0 0 1
    outer loop
      vertex -4.58402 -5.29025 0.75
      vertex -3.4513 -3.4513 0.75
      vertex -3.77297 -3.0964 0.75
    endloop
  endfacet
  facet normal 0 0 1
    outer loop
      vertex -5.88877 -3.78448 0.75
      vertex -3.77297 -3.0964 0.75
      vertex -4.0583 -2.71167 0.75
    endloop
  endfacet
  facet normal 0 0 1
    outer loop
      vertex -5.88877 -3.78448 0.75
      vertex -4.0583 -2.71167 0.75
      vertex -4.30455 -2.30083 0.75
    endloop
  endfacet
  facet normal 0 0 1
    outer loop
      vertex -5.88877 -3.78448 0.75
      vertex -4.30455 -2.30083 0.75
      vertex -4.50934 -1.86783 0.75
    endloop
  endfacet
  facet normal 0 0 1
    outer loop
      vertex -2.95883 -3.875 0.75
      vertex -4.58402 -5.29025 0.75
      vertex -2.9079 -6.36742 0.75
    endloop
  endfacet
  facet normal 0 0 1
    outer loop
      vertex -6.71645 -1.97213 0.75
      vertex -4.50934 -1.86783 0.75
      vertex -4.67071 -1.41684 0.75
    endloop
  endfacet
  facet normal 0 0 1
    outer loop
      vertex -6.71645 -1.97213 0.75
      vertex -4.67071 -1.41684 0.75
      vertex -4.78709 -0.952211 0.75
    endloop
  endfacet
  facet normal 0 0 1
    outer loop
      vertex -6.71645 -1.97213 0.75
      vertex -4.78709 -0.952211 0.75
      vertex -4.85738 -0.47841 0.75
    endloop
  endfacet
  facet normal 0 0 1
    outer loop
      vertex -4.85738 0.47841 0.75
      vertex -7 0 0.75
      vertex -4.875 0.119661 0.75
    endloop
  endfacet
  facet normal 0 0 1
    outer loop
      vertex -4.875 0.119661 0.75
      vertex -7 0 0.75
      vertex -4.875 -0.119661 0.75
    endloop
  endfacet
  facet normal 0 0 1
    outer loop
      vertex -3.77297 -3.0964 0.75
      vertex -5.88877 -3.78448 0.75
      vertex -4.58402 -5.29025 0.75
    endloop
  endfacet
  facet normal 0 0 1
    outer loop
      vertex -4.875 -0.119661 0.75
      vertex -7 0 0.75
      vertex -4.85738 -0.47841 0.75
    endloop
  endfacet
  facet normal 0 0 1
    outer loop
      vertex -4.50934 -1.86783 0.75
      vertex -6.71645 -1.97213 0.75
      vertex -5.88877 -3.78448 0.75
    endloop
  endfacet
  facet normal 0 0 1
    outer loop
      vertex -4.85738 -0.47841 0.75
      vertex -7 0 0.75
      vertex -6.71645 -1.97213 0.75
    endloop
  endfacet
  facet normal 0 0 1
    outer loop
      vertex 2.9079 -6.36742 0.75
      vertex 2 -6.5 0.75
      vertex 2 -6.63401 0.75
    endloop
  endfacet
  facet normal 0.595699 -0.803208 0
    outer loop
      vertex -3.0964 3.77297 0
      vertex -2.95883 3.875 0.75
      vertex -3.0964 3.77297 0.75
    endloop
  endfacet
  facet normal 0.595699 -0.803208 0
    outer loop
      vertex -2.95883 3.875 0.75
      vertex -3.0964 3.77297 0
      vertex -2.95883 3.875 0
    endloop
  endfacet
  facet normal -0.998795 0.0490668 0
    outer loop
      vertex 4.85738 -0.47841 0
      vertex 4.875 -0.119661 0.75
      vertex 4.875 -0.119661 0
    endloop
  endfacet
  facet normal -0.998795 0.0490668 0
    outer loop
      vertex 4.875 -0.119661 0.75
      vertex 4.85738 -0.47841 0
      vertex 4.85738 -0.47841 0.75
    endloop
  endfacet
  facet normal -0.803208 0.595699 0
    outer loop
      vertex 3.77297 -3.0964 0
      vertex 4.0583 -2.71167 0.75
      vertex 4.0583 -2.71167 0
    endloop
  endfacet
  facet normal -0.803208 0.595699 0
    outer loop
      vertex 4.0583 -2.71167 0.75
      vertex 3.77297 -3.0964 0
      vertex 3.77297 -3.0964 0.75
    endloop
  endfacet
  facet normal 0.903989 0.427555 0
    outer loop
      vertex -4.30455 -2.30083 0.75
      vertex -4.50934 -1.86783 0
      vertex -4.50934 -1.86783 0.75
    endloop
  endfacet
  facet normal 0.903989 0.427555 0
    outer loop
      vertex -4.50934 -1.86783 0
      vertex -4.30455 -2.30083 0.75
      vertex -4.30455 -2.30083 0
    endloop
  endfacet
  facet normal -0.903989 0.427555 0
    outer loop
      vertex 4.30455 -2.30083 0
      vertex 4.50934 -1.86783 0.75
      vertex 4.50934 -1.86783 0
    endloop
  endfacet
  facet normal -0.903989 0.427555 0
    outer loop
      vertex 4.50934 -1.86783 0.75
      vertex 4.30455 -2.30083 0
      vertex 4.30455 -2.30083 0.75
    endloop
  endfacet
  facet normal -0.941544 0.33689 0
    outer loop
      vertex 4.50934 -1.86783 0
      vertex 4.67071 -1.41684 0.75
      vertex 4.67071 -1.41684 0
    endloop
  endfacet
  facet normal -0.941544 0.33689 0
    outer loop
      vertex 4.67071 -1.41684 0.75
      vertex 4.50934 -1.86783 0
      vertex 4.50934 -1.86783 0.75
    endloop
  endfacet
  facet normal -0.989176 0.146731 0
    outer loop
      vertex 4.78709 -0.952211 0
      vertex 4.85738 -0.47841 0.75
      vertex 4.85738 -0.47841 0
    endloop
  endfacet
  facet normal -0.989176 0.146731 0
    outer loop
      vertex 4.85738 -0.47841 0.75
      vertex 4.78709 -0.952211 0
      vertex 4.78709 -0.952211 0.75
    endloop
  endfacet
  facet normal 0.970031 0.24298 0
    outer loop
      vertex -4.67071 -1.41684 0.75
      vertex -4.78709 -0.952211 0
      vertex -4.78709 -0.952211 0.75
    endloop
  endfacet
  facet normal 0.970031 0.24298 0
    outer loop
      vertex -4.78709 -0.952211 0
      vertex -4.67071 -1.41684 0.75
      vertex -4.67071 -1.41684 0
    endloop
  endfacet
  facet normal 0.998795 0.0490668 0
    outer loop
      vertex -4.85738 -0.47841 0.75
      vertex -4.875 -0.119661 0
      vertex -4.875 -0.119661 0.75
    endloop
  endfacet
  facet normal 0.998795 0.0490668 0
    outer loop
      vertex -4.875 -0.119661 0
      vertex -4.85738 -0.47841 0.75
      vertex -4.85738 -0.47841 0
    endloop
  endfacet
  facet normal 0.989176 0.146731 0
    outer loop
      vertex -4.78709 -0.952211 0.75
      vertex -4.85738 -0.47841 0
      vertex -4.85738 -0.47841 0.75
    endloop
  endfacet
  facet normal 0.989176 0.146731 0
    outer loop
      vertex -4.85738 -0.47841 0
      vertex -4.78709 -0.952211 0.75
      vertex -4.78709 -0.952211 0
    endloop
  endfacet
  facet normal -0.671558 0.740952 0
    outer loop
      vertex 3.4513 -3.4513 0
      vertex 3.0964 -3.77297 0.75
      vertex 3.4513 -3.4513 0.75
    endloop
  endfacet
  facet normal -0.671558 0.740952 0
    outer loop
      vertex 3.0964 -3.77297 0.75
      vertex 3.4513 -3.4513 0
      vertex 3.0964 -3.77297 0
    endloop
  endfacet
  facet normal -0.595699 0.803208 0
    outer loop
      vertex 3.0964 -3.77297 0
      vertex 2.95883 -3.875 0.75
      vertex 3.0964 -3.77297 0.75
    endloop
  endfacet
  facet normal -0.595699 0.803208 0
    outer loop
      vertex 2.95883 -3.875 0.75
      vertex 3.0964 -3.77297 0
      vertex 2.95883 -3.875 0
    endloop
  endfacet
  facet normal -0.857728 0.514104 0
    outer loop
      vertex 4.0583 -2.71167 0
      vertex 4.30455 -2.30083 0.75
      vertex 4.30455 -2.30083 0
    endloop
  endfacet
  facet normal -0.857728 0.514104 0
    outer loop
      vertex 4.30455 -2.30083 0.75
      vertex 4.0583 -2.71167 0
      vertex 4.0583 -2.71167 0.75
    endloop
  endfacet
  facet normal 0.671558 0.740952 -0
    outer loop
      vertex -3.0964 -3.77297 0
      vertex -3.4513 -3.4513 0.75
      vertex -3.0964 -3.77297 0.75
    endloop
  endfacet
  facet normal 0.671558 0.740952 0
    outer loop
      vertex -3.4513 -3.4513 0.75
      vertex -3.0964 -3.77297 0
      vertex -3.4513 -3.4513 0
    endloop
  endfacet
  facet normal 0.857728 0.514104 0
    outer loop
      vertex -4.0583 -2.71167 0.75
      vertex -4.30455 -2.30083 0
      vertex -4.30455 -2.30083 0.75
    endloop
  endfacet
  facet normal 0.857728 0.514104 0
    outer loop
      vertex -4.30455 -2.30083 0
      vertex -4.0583 -2.71167 0.75
      vertex -4.0583 -2.71167 0
    endloop
  endfacet
  facet normal 0.740952 0.671558 0
    outer loop
      vertex -3.4513 -3.4513 0.75
      vertex -3.77297 -3.0964 0
      vertex -3.77297 -3.0964 0.75
    endloop
  endfacet
  facet normal 0.740952 0.671558 0
    outer loop
      vertex -3.77297 -3.0964 0
      vertex -3.4513 -3.4513 0.75
      vertex -3.4513 -3.4513 0
    endloop
  endfacet
  facet normal 0.803208 0.595699 0
    outer loop
      vertex -3.77297 -3.0964 0.75
      vertex -4.0583 -2.71167 0
      vertex -4.0583 -2.71167 0.75
    endloop
  endfacet
  facet normal 0.803208 0.595699 0
    outer loop
      vertex -4.0583 -2.71167 0
      vertex -3.77297 -3.0964 0.75
      vertex -3.77297 -3.0964 0
    endloop
  endfacet
  facet normal 0.941544 0.33689 0
    outer loop
      vertex -4.50934 -1.86783 0.75
      vertex -4.67071 -1.41684 0
      vertex -4.67071 -1.41684 0.75
    endloop
  endfacet
  facet normal 0.941544 0.33689 0
    outer loop
      vertex -4.67071 -1.41684 0
      vertex -4.50934 -1.86783 0.75
      vertex -4.50934 -1.86783 0
    endloop
  endfacet
  facet normal -0.740952 0.671558 0
    outer loop
      vertex 3.4513 -3.4513 0
      vertex 3.77297 -3.0964 0.75
      vertex 3.77297 -3.0964 0
    endloop
  endfacet
  facet normal -0.740952 0.671558 0
    outer loop
      vertex 3.77297 -3.0964 0.75
      vertex 3.4513 -3.4513 0
      vertex 3.4513 -3.4513 0.75
    endloop
  endfacet
  facet normal 0.595699 0.803208 -0
    outer loop
      vertex -2.95883 -3.875 0
      vertex -3.0964 -3.77297 0.75
      vertex -2.95883 -3.875 0.75
    endloop
  endfacet
  facet normal 0.595699 0.803208 0
    outer loop
      vertex -3.0964 -3.77297 0.75
      vertex -2.95883 -3.875 0
      vertex -3.0964 -3.77297 0
    endloop
  endfacet
  facet normal -1 0 0
    outer loop
      vertex 4.875 -0.119661 0
      vertex 4.875 0.119661 0.75
      vertex 4.875 0.119661 0
    endloop
  endfacet
  facet normal -1 -0 0
    outer loop
      vertex 4.875 0.119661 0.75
      vertex 4.875 -0.119661 0
      vertex 4.875 -0.119661 0.75
    endloop
  endfacet
  facet normal 1 -0 0
    outer loop
      vertex -4.875 -0.119661 0.75
      vertex -4.875 0.119661 0
      vertex -4.875 0.119661 0.75
    endloop
  endfacet
  facet normal 1 0 0
    outer loop
      vertex -4.875 0.119661 0
      vertex -4.875 -0.119661 0.75
      vertex -4.875 -0.119661 0
    endloop
  endfacet
  facet normal 0 1 -0
    outer loop
      vertex 2.95883 -3.875 0
      vertex -2.95883 -3.875 0.75
      vertex 2.95883 -3.875 0.75
    endloop
  endfacet
  facet normal 0 1 0
    outer loop
      vertex -2.95883 -3.875 0.75
      vertex 2.95883 -3.875 0
      vertex -2.95883 -3.875 0
    endloop
  endfacet
  facet normal 0 -1 0
    outer loop
      vertex -2.95883 3.875 0
      vertex 2.95883 3.875 0.75
      vertex -2.95883 3.875 0.75
    endloop
  endfacet
  facet normal 0 -1 -0
    outer loop
      vertex 2.95883 3.875 0.75
      vertex -2.95883 3.875 0
      vertex 2.95883 3.875 0
    endloop
  endfacet
  facet normal -1 0 0
    outer loop
      vertex 2 7.68639 0
      vertex 2 6.63401 0.75
      vertex 2 7.68639 1.75
    endloop
  endfacet
  facet normal -1 0 0
    outer loop
      vertex 2 6.5 0
      vertex 2 6.63401 0.75
      vertex 2 7.68639 0
    endloop
  endfacet
  facet normal -1 -0 0
    outer loop
      vertex 2 6.63401 0.75
      vertex 2 6.5 0
      vertex 2 6.5 0.75
    endloop
  endfacet
  facet normal -1 -0 0
    outer loop
      vertex 2 7.68639 1.75
      vertex 2 6.63401 0.75
      vertex 2 6.63401 1.75
    endloop
  endfacet
  facet normal 1 0 0
    outer loop
      vertex -2 6.63401 0.75
      vertex -2 7.68639 1.75
      vertex -2 6.63401 1.75
    endloop
  endfacet
  facet normal 1 0 0
    outer loop
      vertex -2 7.68639 1.75
      vertex -2 6.63401 0.75
      vertex -2 7.68639 0
    endloop
  endfacet
  facet normal 1 0 0
    outer loop
      vertex -2 6.5 0
      vertex -2 6.63401 0.75
      vertex -2 6.5 0.75
    endloop
  endfacet
  facet normal 1 0 0
    outer loop
      vertex -2 6.63401 0.75
      vertex -2 6.5 0
      vertex -2 7.68639 0
    endloop
  endfacet
  facet normal 0 1 -0
    outer loop
      vertex 2 6.5 0
      vertex -2 6.5 0.75
      vertex 2 6.5 0.75
    endloop
  endfacet
  facet normal 0 1 0
    outer loop
      vertex -2 6.5 0.75
      vertex 2 6.5 0
      vertex -2 6.5 0
    endloop
  endfacet
  facet normal -1 0 0
    outer loop
      vertex 2 -6.5 0
      vertex 2 -6.63401 0.75
      vertex 2 -6.5 0.75
    endloop
  endfacet
  facet normal -1 0 0
    outer loop
      vertex 2 -7.68639 0
      vertex 2 -6.63401 0.75
      vertex 2 -6.5 0
    endloop
  endfacet
  facet normal -1 0 0
    outer loop
      vertex 2 -7.68639 1.75
      vertex 2 -6.63401 0.75
      vertex 2 -7.68639 0
    endloop
  endfacet
  facet normal -1 0 0
    outer loop
      vertex 2 -6.63401 0.75
      vertex 2 -7.68639 1.75
      vertex 2 -6.63401 1.75
    endloop
  endfacet
  facet normal 1 0 0
    outer loop
      vertex -2 -6.63401 1.75
      vertex -2 -7.68639 1.75
      vertex -2 -6.63401 0.75
    endloop
  endfacet
  facet normal 1 -0 0
    outer loop
      vertex -2 -6.63401 0.75
      vertex -2 -6.5 0
      vertex -2 -6.5 0.75
    endloop
  endfacet
  facet normal 1 0 0
    outer loop
      vertex -2 -7.68639 0
      vertex -2 -6.63401 0.75
      vertex -2 -7.68639 1.75
    endloop
  endfacet
  facet normal 1 0 0
    outer loop
      vertex -2 -6.63401 0.75
      vertex -2 -7.68639 0
      vertex -2 -6.5 0
    endloop
  endfacet
  facet normal 0 -1 0
    outer loop
      vertex -2 -6.5 0
      vertex 2 -6.5 0.75
      vertex -2 -6.5 0.75
    endloop
  endfacet
  facet normal 0 -1 -0
    outer loop
      vertex 2 -6.5 0.75
      vertex -2 -6.5 0
      vertex 2 -6.5 0
    endloop
  endfacet
endsolid OpenSCAD_Model
