<?xml version="1.0" encoding="UTF-8" standalone="no"?>
<!DOCTYPE svg PUBLIC "-//W3C//DTD SVG 1.1//EN" "http://www.w3.org/Graphics/SVG/1.1/DTD/svg11.dtd">
<svg width="100%" height="100%" viewBox="0 0 510 245" version="1.1" xmlns="http://www.w3.org/2000/svg" xmlns:xlink="http://www.w3.org/1999/xlink" xml:space="preserve" xmlns:serif="http://www.serif.com/" style="fill-rule:evenodd;clip-rule:evenodd;stroke-linejoin:round;stroke-miterlimit:2;">
    <g transform="matrix(1,0,0,1,-276.324,-161.124)">
        <path d="M400,181L507,177C507,177 524.85,172.579 532,197C540.572,223.095 539.682,179.68 583,181C623.664,177.894 629.93,213.433 633,216C633.924,216.772 638,262 638,262C638,262 644.297,282.971 667,283C689.703,283.029 728,284 728,284L729,360L785.556,359.385L785.77,406.072L280,402L276.324,161.124L374.164,162.118L383.651,173.332L400,181Z"/>
    </g>
</svg>
