<?xml version="1.0" encoding="UTF-8" standalone="no"?>
<!DOCTYPE svg PUBLIC "-//W3C//DTD SVG 1.1//EN" "http://www.w3.org/Graphics/SVG/1.1/DTD/svg11.dtd">
<svg width="100%" height="100%" viewBox="0 0 2550 3300" version="1.1" xmlns="http://www.w3.org/2000/svg" xmlns:xlink="http://www.w3.org/1999/xlink" xml:space="preserve" xmlns:serif="http://www.serif.com/" style="fill-rule:evenodd;clip-rule:evenodd;stroke-linecap:round;stroke-linejoin:round;stroke-miterlimit:1.5;">
    <g transform="matrix(1,0,0,1,0,0.0939368)">
        <path d="M1079.78,1987.47L1175.18,1989.11C1175.18,1989.11 1196.19,1988 1198.32,1966.21L1199.84,1901.93L1200.35,1791.99C1200.35,1791.99 1194.06,1780.44 1236.3,1729.23C1278.53,1678.03 1259.16,1624.39 1258.78,1595.45C1258.41,1566.51 1233.73,1280.92 1233.73,1280.92C1233.73,1280.92 1226.29,1235.68 1172.47,1227.14C1118.65,1218.6 1173.98,1226.88 1091.41,1215.96L1084.55,1215.89C1009.67,1216.78 985.601,1227.14 985.601,1227.14C931.779,1235.68 924.344,1280.92 924.344,1280.92C924.344,1280.92 899.663,1566.51 899.287,1595.45C898.912,1624.39 879.543,1678.03 921.777,1729.23C964.01,1780.44 957.727,1791.99 957.727,1791.99L958.231,1901.93L959.755,1966.21C960.479,1973.63 963.397,1978.66 966.928,1982.06C973.762,1988.63 982.895,1989.11 982.895,1989.11L1078.3,1987.47L1079.78,1987.47Z" style="fill:rgb(255,0,70);stroke:black;stroke-width:1px;"/>
    </g>
</svg>
