<?xml version="1.0" encoding="UTF-8" standalone="no"?>
<!DOCTYPE svg PUBLIC "-//W3C//DTD SVG 1.1//EN" "http://www.w3.org/Graphics/SVG/1.1/DTD/svg11.dtd">
<svg width="100%" height="100%" viewBox="0 0 478 512" version="1.1" xmlns="http://www.w3.org/2000/svg" xmlns:xlink="http://www.w3.org/1999/xlink" xml:space="preserve" xmlns:serif="http://www.serif.com/" style="fill-rule:evenodd;clip-rule:evenodd;stroke-linejoin:round;stroke-miterlimit:2;">
    <g transform="matrix(4.16667,0,0,4.16667,0,0)">
        <g>
            <path d="M15.29,13.16C17.59,9.88 20.43,7.12 23.7,5.04C26.88,3.02 30.45,1.64 34.34,1.05C40.29,0.15 43.56,1.08 47.37,2.17C49.24,2.7 51.26,3.28 53.81,3.66C54.81,3.81 55.77,3.91 56.68,3.95C57.59,3.99 58.5,3.98 59.4,3.92C62.46,3.69 64.58,2.85 66.64,2.03C70.35,0.55 73.91,-0.86 81.57,0.67C85.03,1.36 88.28,2.84 91.28,4.88C94.54,7.09 97.49,9.96 100.11,13.19C100.7,13.92 100.58,14.98 99.86,15.57C99.37,15.97 98.72,16.04 98.17,15.83C96.98,15.48 95.79,15.21 94.61,15.08C100.8,19.71 105.58,25.33 108.92,31.91C112.93,39.82 114.83,49.09 114.57,59.68C114.55,60.61 113.78,61.35 112.85,61.32C112.75,61.32 112.65,61.31 112.56,61.29L112.56,61.3L106.47,60.08C109.21,68.94 110.39,77.26 109.07,84.68C107.58,93.04 102.96,100.2 93.89,105.65C93.14,106.1 92.18,105.9 91.67,105.21L87.11,99.07C86.35,101.43 85.4,103.65 84.26,105.7C82.58,108.74 80.5,111.42 78.03,113.75C71.45,119.95 64.6,122.96 57.71,122.9C50.73,122.84 43.83,119.63 37.23,113.42C34.76,111.1 32.66,108.5 30.85,105.68C29.49,103.56 28.3,101.33 27.25,98.99C26.81,99.51 26.44,100.06 26.11,100.64C25.42,101.85 24.95,103.17 24.65,104.56C24.45,105.47 23.55,106.05 22.64,105.85C22.49,105.82 22.36,105.77 22.23,105.7C14.98,102 9.6,96.66 7.08,88.79C4.74,81.48 4.92,72.05 8.46,59.8C7.87,59.84 7.28,59.93 6.7,60.08C5.21,60.45 3.8,61.11 2.63,61.87C1.85,62.38 0.8,62.16 0.29,61.38C0.08,61.06 -0,60.7 0.02,60.35C-0.1,50.09 1.42,40.83 5.22,32.87C8.56,25.9 13.63,19.95 20.86,15.25C19.68,15.26 18.4,15.46 17.07,15.79C16.17,16.01 15.25,15.45 15.04,14.55C14.91,14.04 15.02,13.55 15.29,13.16ZM50.66,73.42C50.13,72.93 49.76,72.42 49.56,71.89C49.26,71.14 49.29,70.41 49.65,69.7C50.61,67.8 52.27,67.84 53.7,67.88L54.08,67.88L54.08,67.89L62.04,67.86L62.2,67.86C63.59,67.85 64.35,67.85 65.26,69.48C65.67,70.22 65.68,71.02 65.28,71.88C65.04,72.4 64.62,72.96 64.03,73.56C64,73.59 63.96,73.62 63.93,73.65L58.33,78.44C57.65,79.02 56.63,78.97 56.02,78.33L50.68,73.44L50.66,73.42ZM53.62,71.25C53.51,71.25 53.39,71.24 53.27,71.24L57.27,74.91L61.57,71.23L54.07,71.26L54.07,71.27C54,71.26 53.89,71.26 53.62,71.25ZM62.45,95.55C63.98,95.09 65.42,94.33 66.79,93.29C67.66,92.62 68.5,91.84 69.31,90.95L57.78,86.35L46.43,91.16C46.98,91.91 47.55,92.59 48.16,93.19C49.25,94.27 50.46,95.09 51.8,95.61C51.86,95.63 51.92,95.66 51.98,95.69C53.59,96.45 55.23,96.75 56.91,96.72C58.65,96.68 60.45,96.27 62.29,95.6C62.34,95.58 62.4,95.57 62.45,95.55ZM71.93,88.37C75.97,86.15 78.4,83.33 79.45,79.98C80.57,76.41 80.15,72.15 78.43,67.3C78.19,66.63 78.41,65.91 78.91,65.47C79.53,64.87 80.31,64.15 81.09,63.43C84.98,59.83 88.72,56.38 88.73,51.34C88.74,49.37 88.43,47.53 87.83,45.76C87.23,43.98 86.33,42.27 85.15,40.57C82.02,36.05 78.28,33.41 73.85,32.28C69.3,31.13 63.94,31.53 57.68,33.13C57.35,33.21 57.02,33.19 56.72,33.09C49.48,31.23 43.1,30.98 38.02,33.11C33.01,35.2 29.17,39.69 26.89,47.35C26.88,47.39 26.86,47.43 26.85,47.47C25.67,51.22 25.88,54.44 27.23,57.21C28.63,60.09 31.25,62.59 34.82,64.79C35.47,65.19 35.75,65.97 35.56,66.67C34.11,72.76 34.17,77.57 35.66,81.16C37.1,84.61 39.94,86.97 44.12,88.31C44.19,88.33 44.26,88.36 44.33,88.39L57.11,82.97C57.54,82.79 58,82.8 58.4,82.96L71.93,88.37ZM68.84,95.97C67.16,97.25 65.36,98.2 63.41,98.78C61.26,99.56 59.12,100.04 56.97,100.09C54.8,100.14 52.65,99.74 50.54,98.74C48.76,98.05 47.2,96.97 45.79,95.59C44.56,94.38 43.46,92.94 42.47,91.31C37.63,89.62 34.29,86.69 32.53,82.46C30.86,78.45 30.67,73.31 32.02,67.01C28.43,64.63 25.73,61.89 24.18,58.68C22.46,55.13 22.16,51.09 23.63,46.45C23.64,46.43 23.64,46.41 23.65,46.38C26.25,37.65 30.77,32.47 36.72,29.98C42.46,27.58 49.44,27.77 57.25,29.74C63.87,28.09 69.63,27.72 74.66,28.99C79.91,30.32 84.29,33.4 87.92,38.64C89.28,40.59 90.32,42.59 91.03,44.68C91.74,46.78 92.11,48.98 92.1,51.33C92.08,57.84 87.82,61.78 83.37,65.89C82.92,66.31 82.46,66.73 81.96,67.2C83.62,72.31 83.93,76.93 82.66,80.97C81.32,85.25 78.27,88.79 73.23,91.48C71.89,93.26 70.42,94.76 68.84,95.97ZM79.03,50.13C79.7,50.78 79.71,51.85 79.06,52.51C78.41,53.18 77.34,53.19 76.68,52.54C74.13,50.06 72.28,49.23 70.89,49.45C69.57,49.67 68.43,50.93 67.37,52.66C66.88,53.46 65.84,53.7 65.04,53.21C64.24,52.72 64,51.68 64.49,50.88C66.02,48.39 67.85,46.52 70.35,46.12C72.78,45.74 75.61,46.8 79.03,50.13ZM38.13,52.55C37.46,53.2 36.39,53.18 35.75,52.52C35.1,51.85 35.12,50.78 35.78,50.14C39.1,46.91 41.85,45.81 44.23,46.1C46.7,46.41 48.54,48.14 50.08,50.52C50.58,51.3 50.36,52.35 49.57,52.85C48.79,53.35 47.74,53.13 47.24,52.34C46.22,50.75 45.11,49.61 43.83,49.45C42.43,49.28 40.62,50.13 38.13,52.55ZM25.51,7.88C23.76,8.99 22.15,10.33 20.69,11.87L21.34,11.87C23.05,11.92 24.65,12.3 26.04,13.15C26.3,13.3 26.52,13.52 26.67,13.8C27.12,14.62 26.81,15.64 26,16.09C17.51,20.72 11.8,26.89 8.25,34.32C5.01,41.09 3.54,48.94 3.38,57.64C4.17,57.3 5.01,57.01 5.87,56.8C7.51,56.4 9.23,56.27 10.91,56.58C11,56.59 11.09,56.61 11.17,56.64C12.06,56.92 12.56,57.86 12.28,58.75C8.38,71.3 8.01,80.7 10.27,87.76C12.27,94 16.37,98.46 21.92,101.69C22.25,100.74 22.65,99.83 23.16,98.95C24.02,97.45 25.16,96.06 26.65,94.83C26.8,94.69 26.98,94.57 27.19,94.48C28.05,94.13 29.04,94.55 29.39,95.41C30.6,98.4 32.01,101.23 33.69,103.84C35.36,106.44 37.28,108.82 39.54,110.95C45.51,116.57 51.65,119.47 57.74,119.52C63.74,119.57 69.8,116.87 75.72,111.29C77.95,109.19 79.82,106.78 81.32,104.08C82.83,101.36 83.98,98.3 84.76,94.91C84.85,94.53 85.06,94.18 85.4,93.93C86.15,93.38 87.2,93.53 87.76,94.28L93.45,101.94C100.73,97.17 104.49,91.09 105.74,84.09C107.09,76.54 105.58,67.84 102.41,58.48C102.29,58.19 102.25,57.85 102.32,57.52C102.5,56.6 103.39,56.01 104.31,56.19L111.23,57.57C111.21,48.39 109.42,40.33 105.92,33.42C102.17,26.03 96.45,19.93 88.79,15.17C88.4,14.95 88.09,14.57 87.97,14.1C87.75,13.2 88.3,12.28 89.21,12.06C90.88,11.65 92.54,11.54 94.2,11.65C92.68,10.15 91.09,8.8 89.41,7.67C86.78,5.89 83.95,4.6 80.93,3.99C74.23,2.65 71.14,3.88 67.91,5.17C65.6,6.09 63.22,7.04 59.66,7.3C58.66,7.37 57.62,7.38 56.55,7.33C55.48,7.28 54.41,7.17 53.35,7.01C50.57,6.6 48.44,5.99 46.47,5.43C43.04,4.45 40.09,3.61 34.86,4.4C31.41,4.91 28.28,6.11 25.51,7.88ZM22.21,105.69C21.54,105.35 21.16,104.59 21.33,103.83L22.21,105.69Z" style="fill-rule:nonzero;"/>
        </g>
    </g>
</svg>
