<?xml version="1.0" encoding="UTF-8" standalone="no"?>
<!DOCTYPE svg PUBLIC "-//W3C//DTD SVG 1.1//EN" "http://www.w3.org/Graphics/SVG/1.1/DTD/svg11.dtd">
<svg width="100%" height="100%" viewBox="0 0 3334 3334" version="1.1" xmlns="http://www.w3.org/2000/svg" xmlns:xlink="http://www.w3.org/1999/xlink" xml:space="preserve" xmlns:serif="http://www.serif.com/" style="fill-rule:evenodd;clip-rule:evenodd;stroke-linejoin:round;stroke-miterlimit:2;">
    <g transform="matrix(4.16667,0,0,4.16667,0,0)">
        <path d="M506.3,287.813C489.65,287.813 476.25,304.538 476.25,325.288C476.25,346.088 489.65,362.813 506.3,362.813C522.85,362.813 536.25,346.087 536.25,325.288C536.25,304.538 522.85,287.813 506.3,287.813" style="fill-rule:nonzero;"/>
        <path d="M293.713,287.813C277.175,287.813 263.75,304.525 263.75,325.288C263.75,346.088 277.175,362.813 293.713,362.813C310.35,362.813 323.75,346.087 323.75,325.288C323.75,304.525 310.35,287.813 293.713,287.813" style="fill-rule:nonzero;"/>
        <path d="M775,184.913C757.375,184.125 746.313,177.088 737.237,166.275C735.45,129.725 722.475,94.462 703.625,79.15C693.038,70.55 678.113,66.2 659.263,66.2C657.75,66.2 656.188,66.313 654.65,66.363C601.588,37.937 546.15,65.137 546.15,65.137C549.775,45.725 540.65,35.325 547.513,25C444.625,25 400.05,68.275 400,68.313C399.975,68.275 355.4,25 252.513,25C259.375,35.325 250.238,45.725 253.875,65.138C253.875,65.138 198.438,37.925 145.375,66.363C143.838,66.313 142.263,66.2 140.738,66.2C121.9,66.2 106.975,70.563 96.388,79.15C77.525,94.463 64.55,129.725 62.763,166.275C53.7,177.088 42.625,184.125 25,184.913C25,184.913 26.55,232.775 74.888,264.7C74.888,264.7 24.188,313.037 32.7,415.75C32.7,415.75 53.15,390.8 100.975,381.4C44.65,428.65 77.5,498.587 35.8,546.875C35.8,546.875 93.175,559.475 116.438,542.662C107.325,616.7 152.35,645.575 152.35,681.812C203.438,665.012 210.588,614.6 210.588,614.6C210.588,707.95 242.888,704.637 242.888,754.262C242.888,754.262 299.55,745.338 322.825,698.612C332.075,742.675 375.95,747.437 400,775L400.025,775C424.075,747.437 467.95,742.675 477.2,698.612C500.462,745.338 557.137,754.262 557.137,754.262C557.137,704.637 589.438,707.95 589.438,614.6C589.438,614.6 596.588,665.012 647.663,681.812C647.663,645.587 692.688,616.7 683.575,542.662C706.838,559.475 764.213,546.875 764.213,546.875C722.513,498.587 755.375,428.65 699.05,381.4C746.875,390.8 767.313,415.75 767.313,415.75C775.838,313.037 725.125,264.7 725.125,264.7C773.463,232.775 775,184.913 775,184.913M131.363,141.375C114.463,155.138 104.425,212.925 139.175,237.812C134.962,245.415 130.989,253.148 127.262,261C99.975,242.4 90.988,213.112 88.425,190.588C83.875,150.75 97.025,110.85 112.163,98.563C118.088,93.75 127.975,91.2 140.75,91.2C174.613,91.2 218.1,108.75 244.538,131.663C231.038,137.938 218.288,146.1 206.163,155.75C183,138.35 145.888,129.6 131.363,141.375M448.063,663.8C449.225,647.675 444.8,634.45 444.8,634.45C440.85,658.425 430.15,675.563 430.15,675.563C430.612,655 420.138,646.188 420.138,646.188C410.375,674.063 400.162,684.887 400.162,684.887C400.162,684.887 389.975,674.075 380.2,646.187C380.2,646.187 369.737,655 370.2,675.562C370.2,675.562 359.5,658.425 355.55,634.45C355.55,634.45 351.125,647.675 352.275,663.8C352.275,663.8 271.125,611.337 258.4,540.437C284.45,569.7 341.662,617.087 400.025,555.725C458.625,617.325 516.063,569.325 541.963,540.1C529.475,611.175 448.063,663.8 448.063,663.8M379.1,434.175C372.8,425.675 366.288,416.9 358.825,411.4C354.962,408.537 351.638,406.15 348.7,404.1C360.388,399.25 384.2,390.937 400.15,390.937C416.075,390.937 441.05,398.262 453.7,402.475C450.237,404.862 446.175,407.737 441.225,411.4C433.75,416.912 427.313,425.725 421.088,434.25C414.075,443.825 406.15,454.675 400.213,454.675L400.188,454.675C394.263,454.637 386.2,443.762 379.1,434.175M549.95,524.062L549.687,524.9L549.2,525.637C548.937,526.037 547.2,528.537 544.3,532.075C520.025,549.65 462.4,580.412 412.5,533.825L412.5,460.462L460.25,440.275C467.525,436.925 473.487,427.825 473.487,420.1L473.437,398.5C473.437,398.5 447.687,378.45 400.162,378.45C352.637,378.45 326.737,398.5 326.737,398.5L326.612,420.087C326.612,427.812 332.587,436.925 339.85,440.262L387.5,460.412L387.5,533.9C338.013,580.012 280.975,550.113 256.4,532.488C254.559,530.279 252.812,527.993 251.163,525.637L250.675,524.9L250.412,524.063C248.125,516.938 245.437,502.787 247.5,488.937C249.525,475.487 255.975,462.875 259.35,456.85C263.688,449.1 326.6,398.612 326.75,398.5C347.087,362.662 349.575,359.15 367.1,351.487C374.488,348.275 387.275,346.662 400.075,346.662C412.875,346.662 425.638,348.275 433.038,351.487C450.55,359.137 453.113,362.65 473.463,398.487C473.463,398.487 536.7,449.087 541.038,456.85C544.413,462.875 550.875,475.512 552.875,488.937C554.938,502.787 552.238,516.925 549.95,524.063M611.65,358.15C605.875,385.3 567.313,412.575 552.338,451.725C552.188,451.437 552.075,451.012 551.938,450.737C548.3,444.25 525.113,423.775 482.95,389.862C463.388,355.475 459.038,349.212 438.013,340.037C425.838,334.725 407.4,334.162 400.05,334.162C392.675,334.162 374.25,334.725 362.088,340.025C340.975,349.25 336.675,355.513 316.938,390.25C275.088,423.938 252.05,444.287 248.438,450.75C248.275,451.025 248.175,451.475 248.025,451.775C232.975,412.613 194.138,385.325 188.388,358.163C182.513,330.488 207.775,267.463 231.563,254.15C235.825,251.788 250.875,254.15 250.875,254.15C255.325,248.2 279.438,178.638 342.35,167.163C379.7,160.338 400.163,192.262 400.163,192.262C400.163,192.262 420.35,160.338 457.713,167.163C520.6,178.638 544.725,248.2 549.188,254.15C549.188,254.15 564.225,251.788 568.5,254.15C592.263,267.45 617.525,330.475 611.65,358.15M711.6,190.6C709.038,213.125 700.05,242.4 672.763,261C669.036,253.148 665.063,245.415 660.85,237.812C695.612,212.925 685.563,155.138 668.663,141.375C654.138,129.613 617.025,138.363 593.888,155.75C581.75,146.113 569.013,137.938 555.513,131.663C581.925,108.75 625.413,91.2 659.275,91.2C672.063,91.2 681.95,93.75 687.888,98.563C703,110.85 716.163,150.775 711.6,190.6" style="fill-rule:nonzero;"/>
    </g>
</svg>
