<?xml version="1.0" encoding="UTF-8" standalone="no"?>
<svg
   version="1.1"
   id="Layer_1"
   x="0px"
   y="0px"
   viewBox="0 0 13129.726 15100.943"
   xml:space="preserve"
   sodipodi:docname="lion3.svg"
   width="13129.726"
   height="15100.942"
   xmlns:inkscape="http://www.inkscape.org/namespaces/inkscape"
   xmlns:sodipodi="http://sodipodi.sourceforge.net/DTD/sodipodi-0.dtd"
   xmlns="http://www.w3.org/2000/svg"
   xmlns:svg="http://www.w3.org/2000/svg"><defs
     id="defs60" /><sodipodi:namedview
     id="namedview58"
     pagecolor="#ffffff"
     bordercolor="#000000"
     borderopacity="0.25"
     inkscape:showpageshadow="2"
     inkscape:pageopacity="0.0"
     inkscape:pagecheckerboard="0"
     inkscape:deskcolor="#d1d1d1"
     showgrid="false" /><path
     d="m 13.749264,12.042234 c 2.3,-3.2800001 5.14,-6.0400001 8.41,-8.1200001 3.18,-2.02 6.75,-3.40000002 10.64,-3.99000002 5.95,-0.9 9.22,0.03 13.03,1.12000002 1.87,0.53 3.89,1.11 6.44,1.49 1,0.15 1.96,0.25 2.87,0.29 0.91,0.04 1.82,0.03 2.72,-0.03 3.06,-0.23 5.18,-1.07 7.24,-1.89000002 3.71,-1.48 7.27,-2.88999998 14.93,-1.36 3.46,0.69 6.71,2.17000002 9.71,4.21000002 3.26,2.21 6.21,5.08 8.83,8.3100001 0.59,0.73 0.47,1.79 -0.25,2.38 -0.49,0.4 -1.14,0.47 -1.69,0.26 -1.19,-0.35 -2.38,-0.62 -3.56,-0.75 6.19,4.63 10.969996,10.25 14.309996,16.83 4.01,7.91 5.91,17.18 5.65,27.77 -0.02,0.93 -0.79,1.67 -1.72,1.64 -0.1,0 -0.2,-0.01 -0.29,-0.03 v 0.01 l -6.09,-1.22 c 2.74,8.86 3.92,17.18 2.6,24.6 -1.49,8.36 -6.11,15.52 -15.179996,20.969996 -0.75,0.45 -1.71,0.25 -2.22,-0.44 l -4.56,-6.139996 c -0.76,2.359996 -1.71,4.579996 -2.85,6.629996 -1.68,3.04 -3.76,5.72 -6.23,8.05 -6.58,6.2 -13.43,9.21 -20.32,9.15 -6.98,-0.06 -13.88,-3.27 -20.48,-9.48 -2.47,-2.32 -4.57,-4.92 -6.38,-7.74 -1.36,-2.12 -2.55,-4.35 -3.6,-6.689996 -0.44,0.52 -0.81,1.07 -1.14,1.65 -0.69,1.209996 -1.16,2.529996 -1.46,3.919996 -0.2,0.91 -1.1,1.49 -2.01,1.29 -0.15,-0.03 -0.28,-0.08 -0.41,-0.15 -7.25,-3.7 -12.6300003,-9.039996 -15.1500003,-16.909996 -2.34,-7.31 -2.16,-16.74 1.38,-28.99 -0.59,0.04 -1.18,0.13 -1.76,0.28 -1.49,0.37 -2.9,1.03 -4.07,1.79 -0.77999997,0.51 -1.82999997,0.29 -2.34,-0.49 -0.21,-0.32 -0.29,-0.68 -0.27,-1.03 -0.12,-10.26 1.40000003,-19.52 5.2,-27.48 3.34,-6.97 8.4100003,-12.92 15.6400003,-17.62 -1.18,0.01 -2.46,0.21 -3.79,0.54 -0.9,0.22 -1.82,-0.34 -2.03,-1.24 -0.13,-0.51 -0.02,-1 0.25,-1.39 z m 35.37,60.26 c -0.53,-0.49 -0.9,-1 -1.1,-1.53 -0.3,-0.75 -0.27,-1.48 0.09,-2.19 0.96,-1.9 2.62,-1.86 4.05,-1.82 0.01,0 0.03,0 0.38,0 v 0.01 l 7.96,-0.03 h 0.16 c 1.39,-0.01 2.15,-0.01 3.06,1.62 0.41,0.74 0.42,1.54 0.02,2.4 -0.24,0.52 -0.66,1.08 -1.25,1.68 -0.03,0.03 -0.07,0.06 -0.1,0.09 v 0 l -5.6,4.79 c -0.68,0.58 -1.7,0.53 -2.31,-0.11 l -5.34,-4.89 z m 2.96,-2.17 c -0.11,0 -0.23,-0.01 -0.35,-0.01 l 4,3.67 4.3,-3.68 -7.5,0.03 v 0.01 c -0.07,-0.01 -0.18,-0.01 -0.45,-0.02 z m 8.83,24.3 c 1.53,-0.46 2.97,-1.22 4.34,-2.26 0.87,-0.67 1.71,-1.45 2.52,-2.34 l -11.53,-4.6 -11.35,4.81 c 0.55,0.75 1.12,1.43 1.73,2.03 1.09,1.08 2.3,1.9 3.64,2.42 0.06,0.02 0.12,0.05 0.18,0.08 1.61,0.76 3.25,1.06 4.93,1.03 1.74,-0.04 3.54,-0.45 5.38,-1.12 0.05,-0.02 0.11,-0.03 0.16,-0.05 z m 9.48,-7.18 c 4.04,-2.22 6.47,-5.04 7.52,-8.39 1.12,-3.57 0.7,-7.83 -1.02,-12.68 -0.24,-0.67 -0.02,-1.39 0.48,-1.83 0.62,-0.6 1.4,-1.32 2.18,-2.04 3.89,-3.6 7.63,-7.05 7.64,-12.09 0.01,-1.97 -0.3,-3.81 -0.9,-5.58 -0.6,-1.78 -1.5,-3.49 -2.68,-5.19 -3.13,-4.52 -6.87,-7.16 -11.3,-8.29 -4.55,-1.15 -9.91,-0.75 -16.17,0.85 -0.33,0.08 -0.66,0.06 -0.96,-0.04 -7.24,-1.86 -13.62,-2.11 -18.7,0.02 -5.01,2.09 -8.85,6.58 -11.13,14.24 -0.01,0.04 -0.03,0.08 -0.04,0.12 -1.18,3.75 -0.97,6.97 0.38,9.74 1.4,2.88 4.02,5.38 7.59,7.58 0.65,0.4 0.93,1.18 0.74,1.88 -1.45,6.09 -1.39,10.9 0.1,14.49 1.44,3.45 4.28,5.81 8.46,7.15 0.07,0.02 0.14,0.05 0.21,0.08 l 12.78,-5.42 c 0.43,-0.18 0.89,-0.17 1.29,-0.01 z m -3.09,7.6 c -1.68,1.28 -3.48,2.23 -5.43,2.81 -2.15,0.78 -4.29,1.26 -6.44,1.31 -2.17,0.05 -4.32,-0.35 -6.43,-1.35 -1.78,-0.69 -3.34,-1.77 -4.75,-3.15 -1.23,-1.21 -2.33,-2.65 -3.32,-4.28 -4.84,-1.69 -8.18,-4.62 -9.94,-8.85 -1.67,-4.01 -1.86,-9.15 -0.51,-15.45 -3.59,-2.38 -6.29,-5.12 -7.84,-8.33 -1.72,-3.55 -2.02,-7.59 -0.55,-12.23 0.01,-0.02 0.01,-0.04 0.02,-0.07 2.6,-8.73 7.12,-13.91 13.07,-16.4 5.74,-2.4 12.72,-2.21 20.53,-0.24 6.62,-1.65 12.38,-2.02 17.41,-0.75 5.25,1.33 9.63,4.41 13.26,9.65 1.36,1.95 2.4,3.95 3.11,6.04 0.71,2.1 1.08,4.3 1.07,6.65 -0.02,6.51 -4.28,10.45 -8.73,14.56 -0.45,0.42 -0.91,0.84 -1.41,1.31 1.66,5.11 1.97,9.73 0.7,13.77 -1.34,4.28 -4.39,7.82 -9.43,10.51 -1.34,1.78 -2.81,3.28 -4.39,4.49 z m 10.19,-45.84 c 0.67,0.65 0.68,1.72 0.03,2.38 -0.65,0.67 -1.72,0.68 -2.38,0.03 -2.55,-2.48 -4.4,-3.31 -5.79,-3.09 -1.32,0.22 -2.46,1.48 -3.52,3.21 -0.49,0.8 -1.53,1.04 -2.33,0.55 -0.8,-0.49 -1.04,-1.53 -0.55,-2.33 1.53,-2.49 3.36,-4.36 5.86,-4.76 2.43,-0.38 5.26,0.68 8.68,4.01 z m -40.9,2.42 c -0.67,0.65 -1.74,0.63 -2.38,-0.03 -0.65,-0.67 -0.63,-1.74 0.03,-2.38 3.32,-3.23 6.07,-4.33 8.45,-4.04 2.47,0.31 4.31,2.04 5.85,4.42 0.5,0.78 0.28,1.83 -0.51,2.33 -0.78,0.5 -1.83,0.28 -2.33,-0.51 -1.02,-1.59 -2.13,-2.73 -3.41,-2.89 -1.4,-0.17 -3.21,0.68 -5.7,3.1 z m -12.62,-44.6700001 c -1.75,1.11 -3.36,2.45 -4.82,3.9900001 0.22,0 0.43,0 0.65,0 1.71,0.05 3.31,0.43 4.7,1.28 0.26,0.15 0.48,0.37 0.63,0.65 0.45,0.82 0.14,1.84 -0.67,2.29 -8.49,4.63 -14.2,10.8 -17.7500003,18.23 -3.24,6.77 -4.71,14.62 -4.87,23.32 0.79,-0.34 1.63,-0.63 2.49,-0.84 1.64,-0.4 3.36,-0.53 5.04,-0.22 0.09,0.01 0.18,0.03 0.26,0.06 0.8900003,0.28 1.3900003,1.22 1.1100003,2.11 -3.9000003,12.55 -4.2700003,21.95 -2.0100003,29.01 2.0000003,6.24 6.1000003,10.7 11.6500003,13.929996 0.33,-0.949996 0.73,-1.859996 1.24,-2.739996 0.86,-1.5 2,-2.89 3.49,-4.12 0.15,-0.14 0.33,-0.26 0.54,-0.35 0.86,-0.35 1.85,0.07 2.2,0.93 1.21,2.99 2.62,5.819996 4.3,8.429996 1.67,2.6 3.59,4.98 5.85,7.11 5.97,5.62 12.11,8.52 18.2,8.57 6,0.05 12.06,-2.65 17.98,-8.23 2.23,-2.1 4.1,-4.51 5.6,-7.21 1.51,-2.72 2.66,-5.779996 3.44,-9.169996 v 0 c 0.09,-0.38 0.3,-0.73 0.64,-0.98 0.75,-0.55 1.8,-0.4 2.36,0.35 l 5.69,7.659996 c 7.28,-4.769996 11.039996,-10.849996 12.289996,-17.849996 1.35,-7.55 -0.16,-16.25 -3.33,-25.61 -0.12,-0.29 -0.16,-0.63 -0.09,-0.96 0.18,-0.92 1.07,-1.51 1.99,-1.33 l 6.92,1.38 c -0.02,-9.18 -1.81,-17.24 -5.31,-24.15 -3.75,-7.39 -9.469996,-13.49 -17.129996,-18.25 -0.39,-0.22 -0.7,-0.6 -0.82,-1.07 -0.22,-0.9 0.33,-1.82 1.24,-2.04 1.67,-0.41 3.33,-0.52 4.99,-0.41 -1.52,-1.5000001 -3.11,-2.8500001 -4.79,-3.9800001 -2.63,-1.78 -5.46,-3.07 -8.48,-3.68 -6.7,-1.34 -9.79,-0.11 -13.02,1.18 -2.31,0.92 -4.69,1.87 -8.25,2.13 -1,0.07 -2.04,0.08 -3.11,0.03 -1.07,-0.05 -2.14,-0.16 -3.2,-0.32 -2.78,-0.41 -4.91,-1.02 -6.88,-1.58 -3.43,-0.98 -6.38,-1.82 -11.61,-1.03 -3.45,0.51 -6.58,1.71 -9.35,3.48 z m -3.3,97.8099961 c -0.67,-0.34 -1.05,-1.1 -0.88,-1.86 z m 0.01,0 z"
     id="path53" /></svg>
